<svg width="3483" height="1785" viewBox="0 0 3483 1785" fill="none" xmlns="http://www.w3.org/2000/svg">
<g clip-path="url(#clip0_228_2691)">
<path d="M2790.28 613.441C2594.96 654.201 2533.97 481.854 2477.53 309.507C2403.81 84.3606 2337.84 -140.786 1990.24 109.147C1858.08 204.161 1694.45 185.481 1518.76 166.774C1369.97 150.947 1212.53 135.121 1058.23 188.347C749.164 294.934 825.3 644.694 855.204 759.134C915.611 990.294 614.757 898.107 440.373 997.427C166.832 1153.21 406.781 1781.31 665.197 1783.92C923.615 1786.53 2976.89 1778.71 2976.89 1778.71C2976.89 1778.71 3089.67 1690.48 3149.55 1508.64C3272.31 1135.87 3186.96 530.667 2790.28 613.441" fill="#EBF2F9"/>
<path d="M2806.21 1538.99V1779.51H2689.51V1538.99H2806.21Z" fill="#DCEAF9"/>
<path d="M1086.65 864.56V759.44H1118.56V578.707H1289.65V759.44H1449.6V511.707L1626.11 444.894V656.12H1666.36V374.827L1842.87 433.32V855.814H2066.11V1105.37H2149.51V1168.24H2341.09V1059.99H2451.09V765.814H2586.97V1308.84H2722.85V1781.37H2586.97H2470.51H2451.09H2341.09H2278.92H2179.33H2149.51H2066.11H1987.75H1842.87H1798.51H1710.23H1666.36H1626.11H1533.72H1470.83H1449.6H1289.65H1121.41H1118.56H1086.65H950.331V864.56H1086.65" fill="#D5E7F7"/>
<path d="M1697.43 498.32H1816.49V454.72H1697.43V498.32Z" fill="#C4D9ED"/>
<path d="M1697.43 580.24H1816.49V536.627H1697.43V580.24Z" fill="#C4D9ED"/>
<path d="M1697.43 653.934H1816.49V610.334H1697.43V653.934Z" fill="#C4D9ED"/>
<path d="M2586.97 964V1031.31H2448.57V964H2586.97Z" fill="#C4D9ED"/>
<path d="M2586.97 1237.91H2449.89V1170.6H2586.97V1237.91Z" fill="#C4D9ED"/>
<path d="M2586.97 1339.57H2449.89V1272.27H2586.97V1339.57Z" fill="#C4D9ED"/>
<path d="M2452.13 1445.95H2589.2V1378.64H2452.13V1445.95Z" fill="#C4D9ED"/>
<path d="M2589.2 1550.12H2452.13V1482.81H2589.2V1550.12" fill="#C4D9ED"/>
<path d="M2452.13 1656.49H2589.2V1589.19H2452.13V1656.49Z" fill="#C4D9ED"/>
<path d="M1477.63 610.334H1602.87V653.934H1477.63V610.334Z" fill="#C4D9ED"/>
<path d="M1477.63 537.293H1602.87V580.907H1477.63V537.293Z" fill="#C4D9ED"/>
<path d="M1819.52 695.12V738.72H1477.63V695.12H1819.52" fill="#C4D9ED"/>
<path d="M1819.52 804.28H1477.63V760.68H1819.52V804.28" fill="#C4D9ED"/>
<path d="M1819.52 867.733H1477.63V825.8H1819.52V867.733" fill="#C4D9ED"/>
<path d="M2586.97 1136.23H2449.89V1068.92H2586.97V1136.23Z" fill="#C4D9ED"/>
<path d="M2031.92 938.894H2002V896.72H2031.92V938.894Z" fill="#C4D9ED"/>
<path d="M1975.96 938.894H1946.04V896.72H1975.96V938.894Z" fill="#C4D9ED"/>
<path d="M1921.27 938.894H1891.33V896.72H1921.27V938.894Z" fill="#C4D9ED"/>
<path d="M1869.4 938.894H1839.48V896.72H1869.4V938.894Z" fill="#C4D9ED"/>
<path d="M1816.53 938.894H1786.61V896.72H1816.53V938.894Z" fill="#C4D9ED"/>
<path d="M1763.07 938.894H1733.15V896.72H1763.07V938.894Z" fill="#C4D9ED"/>
<path d="M1707.11 938.894H1677.19V896.72H1707.11V938.894Z" fill="#C4D9ED"/>
<path d="M1652.41 938.894H1622.48V896.72H1652.41V938.894Z" fill="#C4D9ED"/>
<path d="M1600.55 938.894H1570.63V896.72H1600.55V938.894Z" fill="#C4D9ED"/>
<path d="M1547.68 938.894H1517.76V896.72H1547.68V938.894Z" fill="#C4D9ED"/>
<path d="M1492.6 938.894H1462.67V896.72H1492.6V938.894Z" fill="#C4D9ED"/>
<path d="M1436.64 938.894H1406.72V896.72H1436.64V938.894Z" fill="#C4D9ED"/>
<path d="M1381.93 938.894H1352.01V896.72H1381.93V938.894Z" fill="#C4D9ED"/>
<path d="M1330.07 938.894H1300.15V896.72H1330.07V938.894Z" fill="#C4D9ED"/>
<path d="M1277.21 938.894H1247.28V896.72H1277.21V938.894Z" fill="#C4D9ED"/>
<path d="M1167.79 938.894H1137.87V896.72H1167.79V938.894Z" fill="#C4D9ED"/>
<path d="M1113.08 938.894H1083.16V896.72H1113.08V938.894Z" fill="#C4D9ED"/>
<path d="M1061.21 938.894H1031.29V896.72H1061.21V938.894Z" fill="#C4D9ED"/>
<path d="M1008.35 896.72V938.894H978.432V896.72H1008.35Z" fill="#C4D9ED"/>
<path d="M2031.92 1013.32H2002V971.147H2031.92V1013.32Z" fill="#C4D9ED"/>
<path d="M1975.96 1013.32H1946.04V971.147H1975.96V1013.32Z" fill="#C4D9ED"/>
<path d="M1921.27 1013.32H1891.33V971.147H1921.27V1013.32Z" fill="#C4D9ED"/>
<path d="M1869.4 1013.32H1839.48V971.147H1869.4V1013.32Z" fill="#C4D9ED"/>
<path d="M1816.53 1013.32H1786.61V971.147H1816.53V1013.32Z" fill="#C4D9ED"/>
<path d="M1763.07 1013.32H1733.15V971.147H1763.07V1013.32Z" fill="#C4D9ED"/>
<path d="M1707.11 1013.32H1677.19V971.147H1707.11V1013.32Z" fill="#C4D9ED"/>
<path d="M1652.41 1013.32H1622.48V971.147H1652.41V1013.32Z" fill="#C4D9ED"/>
<path d="M1600.55 1013.32H1570.63V971.147H1600.55V1013.32Z" fill="#C4D9ED"/>
<path d="M1547.68 1013.32H1517.76V971.147H1547.68V1013.32Z" fill="#C4D9ED"/>
<path d="M1492.6 1013.32H1462.67V971.147H1492.6V1013.32Z" fill="#C4D9ED"/>
<path d="M1436.64 1013.32H1406.72V971.147H1436.64V1013.32Z" fill="#C4D9ED"/>
<path d="M1381.93 1013.32H1352.01V971.147H1381.93V1013.32Z" fill="#C4D9ED"/>
<path d="M1330.07 1013.32H1300.15V971.147H1330.07V1013.32Z" fill="#C4D9ED"/>
<path d="M1277.21 1013.32H1247.28V971.147H1277.21V1013.32Z" fill="#C4D9ED"/>
<path d="M1223.75 1013.32H1193.81V971.147H1223.75V1013.32Z" fill="#C4D9ED"/>
<path d="M1167.79 1013.32H1137.87V971.147H1167.79V1013.32Z" fill="#C4D9ED"/>
<path d="M1113.08 1013.32H1083.16V971.147H1113.08V1013.32Z" fill="#C4D9ED"/>
<path d="M1061.21 1013.32H1031.29V971.147H1061.21V1013.32Z" fill="#C4D9ED"/>
<path d="M1008.35 1013.32H978.432V971.147H1008.35V1013.32Z" fill="#C4D9ED"/>
<path d="M2031.92 1086.6H2002V1044.43H2031.92V1086.6Z" fill="#C4D9ED"/>
<path d="M1975.96 1086.6H1946.04V1044.43H1975.96V1086.6Z" fill="#C4D9ED"/>
<path d="M1921.27 1086.6H1891.33V1044.43H1921.27V1086.6Z" fill="#C4D9ED"/>
<path d="M1869.4 1086.6H1839.48V1044.43H1869.4V1086.6Z" fill="#C4D9ED"/>
<path d="M1816.53 1086.6H1786.61V1044.43H1816.53V1086.6Z" fill="#C4D9ED"/>
<path d="M1763.07 1086.6H1733.15V1044.43H1763.07V1086.6Z" fill="#C4D9ED"/>
<path d="M1707.11 1086.6H1677.19V1044.43H1707.11V1086.6Z" fill="#C4D9ED"/>
<path d="M1652.41 1086.6H1622.48V1044.43H1652.41V1086.6Z" fill="#C4D9ED"/>
<path d="M1600.55 1086.6H1570.63V1044.43H1600.55V1086.6Z" fill="#C4D9ED"/>
<path d="M1547.68 1086.6H1517.76V1044.43H1547.68V1086.6Z" fill="#C4D9ED"/>
<path d="M1492.6 1086.6H1462.67V1044.43H1492.6V1086.6Z" fill="#C4D9ED"/>
<path d="M1436.64 1086.6H1406.72V1044.43H1436.64V1086.6Z" fill="#C4D9ED"/>
<path d="M1381.93 1086.6H1352.01V1044.43H1381.93V1086.6Z" fill="#C4D9ED"/>
<path d="M1330.07 1086.6H1300.15V1044.43H1330.07V1086.6Z" fill="#C4D9ED"/>
<path d="M1277.21 1086.6H1247.28V1044.43H1277.21V1086.6Z" fill="#C4D9ED"/>
<path d="M1223.75 1086.6H1193.81V1044.43H1223.75V1086.6Z" fill="#C4D9ED"/>
<path d="M1167.79 1086.6H1137.87V1044.43H1167.79V1086.6Z" fill="#C4D9ED"/>
<path d="M1113.08 1086.6H1083.16V1044.43H1113.08V1086.6Z" fill="#C4D9ED"/>
<path d="M1061.21 1086.6H1031.29V1044.43H1061.21V1086.6Z" fill="#C4D9ED"/>
<path d="M1008.35 1086.6H978.432V1044.43H1008.35V1086.6Z" fill="#C4D9ED"/>
<path d="M2031.92 1164.47H2002V1122.29H2031.92V1164.47Z" fill="#C4D9ED"/>
<path d="M1975.96 1164.47H1946.04V1122.29H1975.96V1164.47Z" fill="#C4D9ED"/>
<path d="M1921.27 1164.47H1891.33V1122.29H1921.27V1164.47Z" fill="#C4D9ED"/>
<path d="M1869.4 1164.47H1839.48V1122.29H1869.4V1164.47Z" fill="#C4D9ED"/>
<path d="M1816.53 1164.47H1786.61V1122.29H1816.53V1164.47Z" fill="#C4D9ED"/>
<path d="M1763.07 1164.47H1733.15V1122.29H1763.07V1164.47Z" fill="#C4D9ED"/>
<path d="M1707.11 1164.47H1677.19V1122.29H1707.11V1164.47Z" fill="#C4D9ED"/>
<path d="M1652.41 1164.47H1622.48V1122.29H1652.41V1164.47Z" fill="#C4D9ED"/>
<path d="M1600.55 1164.47H1570.63V1122.29H1600.55V1164.47Z" fill="#C4D9ED"/>
<path d="M1547.68 1164.47H1517.76V1122.29H1547.68V1164.47Z" fill="#C4D9ED"/>
<path d="M1492.6 1164.47H1462.67V1122.29H1492.6V1164.47Z" fill="#C4D9ED"/>
<path d="M1436.64 1164.47H1406.72V1122.29H1436.64V1164.47Z" fill="#C4D9ED"/>
<path d="M1381.93 1164.47H1352.01V1122.29H1381.93V1164.47Z" fill="#C4D9ED"/>
<path d="M1330.07 1164.47H1300.15V1122.29H1330.07V1164.47Z" fill="#C4D9ED"/>
<path d="M1277.21 1164.47H1247.28V1122.29H1277.21V1164.47Z" fill="#C4D9ED"/>
<path d="M1223.75 1164.47H1193.81V1122.29H1223.75V1164.47Z" fill="#C4D9ED"/>
<path d="M1167.79 1164.47H1137.87V1122.29H1167.79V1164.47Z" fill="#C4D9ED"/>
<path d="M1113.08 1164.47H1083.16V1122.29H1113.08V1164.47Z" fill="#C4D9ED"/>
<path d="M1061.21 1164.47H1031.29V1122.29H1061.21V1164.47Z" fill="#C4D9ED"/>
<path d="M1008.35 1164.47H978.432V1122.29H1008.35V1164.47Z" fill="#C4D9ED"/>
<path d="M2031.92 1238.89H2002V1196.72H2031.92V1238.89Z" fill="#C4D9ED"/>
<path d="M1975.96 1238.89H1946.04V1196.72H1975.96V1238.89Z" fill="#C4D9ED"/>
<path d="M1921.27 1238.89H1891.33V1196.72H1921.27V1238.89Z" fill="#C4D9ED"/>
<path d="M1869.4 1238.89H1839.48V1196.72H1869.4V1238.89Z" fill="#C4D9ED"/>
<path d="M1816.53 1238.89H1786.61V1196.72H1816.53V1238.89Z" fill="#C4D9ED"/>
<path d="M1763.07 1238.89H1733.15V1196.72H1763.07V1238.89Z" fill="#C4D9ED"/>
<path d="M1707.11 1238.89H1677.19V1196.72H1707.11V1238.89Z" fill="#C4D9ED"/>
<path d="M1652.41 1238.89H1622.48V1196.72H1652.41V1238.89Z" fill="#C4D9ED"/>
<path d="M1600.55 1238.89H1570.63V1196.72H1600.55V1238.89Z" fill="#C4D9ED"/>
<path d="M1547.68 1238.89H1517.76V1196.72H1547.68V1238.89Z" fill="#C4D9ED"/>
<path d="M1492.6 1238.89H1462.67V1196.72H1492.6V1238.89Z" fill="#C4D9ED"/>
<path d="M1436.64 1238.89H1406.72V1196.72H1436.64V1238.89Z" fill="#C4D9ED"/>
<path d="M1381.93 1238.89H1352.01V1196.72H1381.93V1238.89Z" fill="#C4D9ED"/>
<path d="M1330.07 1238.89H1300.15V1196.72H1330.07V1238.89Z" fill="#C4D9ED"/>
<path d="M1277.21 1238.89H1247.28V1196.72H1277.21V1238.89Z" fill="#C4D9ED"/>
<path d="M1223.75 1238.89H1193.81V1196.72H1223.75V1238.89Z" fill="#C4D9ED"/>
<path d="M1167.79 1238.89H1137.87V1196.72H1167.79V1238.89Z" fill="#C4D9ED"/>
<path d="M1061.21 1238.89H1031.29V1196.72H1061.21V1238.89Z" fill="#C4D9ED"/>
<path d="M1113.08 1238.89H1083.16V1196.72H1113.08V1238.89Z" fill="#C4D9ED"/>
<path d="M1008.35 1238.89H978.432V1196.72H1008.35V1238.89Z" fill="#C4D9ED"/>
<path d="M2031.92 1312.17H2002V1270H2031.92V1312.17Z" fill="#C4D9ED"/>
<path d="M1975.96 1312.17H1946.04V1270H1975.96V1312.17Z" fill="#C4D9ED"/>
<path d="M1921.27 1312.17H1891.33V1270H1921.27V1312.17Z" fill="#C4D9ED"/>
<path d="M1869.4 1312.17H1839.48V1270H1869.4V1312.17Z" fill="#C4D9ED"/>
<path d="M1816.53 1312.17H1786.61V1270H1816.53V1312.17Z" fill="#C4D9ED"/>
<path d="M1763.07 1312.17H1733.15V1270H1763.07V1312.17Z" fill="#C4D9ED"/>
<path d="M1707.11 1312.17H1677.19V1270H1707.11V1312.17Z" fill="#C4D9ED"/>
<path d="M1652.41 1312.17H1622.48V1270H1652.41V1312.17Z" fill="#C4D9ED"/>
<path d="M1600.55 1312.17H1570.63V1270H1600.55V1312.17Z" fill="#C4D9ED"/>
<path d="M1547.68 1312.17H1517.76V1270H1547.68V1312.17Z" fill="#C4D9ED"/>
<path d="M1492.6 1312.17H1462.67V1270H1492.6V1312.17Z" fill="#C4D9ED"/>
<path d="M1436.64 1312.17H1406.72V1270H1436.64V1312.17Z" fill="#C4D9ED"/>
<path d="M1381.93 1312.17H1352.01V1270H1381.93V1312.17Z" fill="#C4D9ED"/>
<path d="M1330.07 1312.17H1300.15V1270H1330.07V1312.17Z" fill="#C4D9ED"/>
<path d="M1277.21 1312.17H1247.28V1270H1277.21V1312.17Z" fill="#C4D9ED"/>
<path d="M1223.75 1312.17H1193.81V1270H1223.75V1312.17Z" fill="#C4D9ED"/>
<path d="M1167.79 1312.17H1137.87V1270H1167.79V1312.17Z" fill="#C4D9ED"/>
<path d="M1061.21 1312.17H1031.29V1270H1061.21V1312.17Z" fill="#C4D9ED"/>
<path d="M1008.35 1312.17H978.432V1270H1008.35V1312.17Z" fill="#C4D9ED"/>
<path d="M727.597 1186.63V1636.99H661.031V1186.63H727.597" fill="#C4D9ED"/>
<path d="M727.598 1773.25H799.059V1460.44H727.598V1773.25Z" fill="#ADC9E0"/>
<path d="M2292.43 1059.79V972.067H2288.81V1059.79H2239.45V1168.05H2341.11V1059.79H2292.43" fill="#C4D9ED"/>
<path d="M2586.97 833.24V765.933H2558.37V736.653H2554.76V765.933H2450.48H2448.57H2428.85V736.653H2425.24V765.933H2399.95V1060.08H2450.48V933.347H2586.97V866.04H2450.48V833.24H2586.97" fill="#C4D9ED"/>
<path d="M1109.31 1252.17V1631.81H727.598V1186.63L1109.31 1252.17Z" fill="#D5E7F7"/>
<path d="M633.115 1779.51H1109.31V1459.25H633.115V1779.51Z" fill="#D5E7F7"/>
<path d="M1109.31 1373.81H633.115V1269.73H1109.31V1373.81Z" fill="#C4D9ED"/>
<path d="M1076.88 1580.56H1052.43V1546.09H1076.88V1580.56Z" fill="#C4D9ED"/>
<path d="M1031.15 1580.56H1006.69V1546.09H1031.15V1580.56Z" fill="#C4D9ED"/>
<path d="M986.439 1580.56H961.983V1546.09H986.439V1580.56Z" fill="#C4D9ED"/>
<path d="M944.048 1580.56H919.591V1546.09H944.048V1580.56Z" fill="#C4D9ED"/>
<path d="M900.841 1580.56H876.385V1546.09H900.841V1580.56Z" fill="#C4D9ED"/>
<path d="M857.142 1580.56H832.687V1546.09H857.142V1580.56Z" fill="#C4D9ED"/>
<path d="M811.41 1580.56H786.952V1546.09H811.41V1580.56Z" fill="#C4D9ED"/>
<path d="M766.699 1580.56H742.243V1546.09H766.699V1580.56Z" fill="#C4D9ED"/>
<path d="M724.307 1580.56H699.851V1546.09H724.307V1580.56Z" fill="#C4D9ED"/>
<path d="M681.103 1546.09V1580.56H656.646V1546.09H681.103Z" fill="#C4D9ED"/>
<path d="M1076.88 1641.4H1052.43V1606.92H1076.88V1641.4Z" fill="#C4D9ED"/>
<path d="M1031.15 1641.4H1006.69V1606.92H1031.15V1641.4Z" fill="#C4D9ED"/>
<path d="M986.439 1641.4H961.983V1606.92H986.439V1641.4Z" fill="#C4D9ED"/>
<path d="M944.048 1641.4H919.591V1606.92H944.048V1641.4Z" fill="#C4D9ED"/>
<path d="M900.841 1641.4H876.385V1606.92H900.841V1641.4Z" fill="#C4D9ED"/>
<path d="M857.142 1641.4H832.687V1606.92H857.142V1641.4Z" fill="#C4D9ED"/>
<path d="M811.41 1641.4H786.952V1606.92H811.41V1641.4Z" fill="#C4D9ED"/>
<path d="M766.699 1641.4H742.243V1606.92H766.699V1641.4Z" fill="#C4D9ED"/>
<path d="M724.307 1641.4H699.851V1606.92H724.307V1641.4Z" fill="#C4D9ED"/>
<path d="M681.103 1641.4H656.646V1606.92H681.103V1641.4Z" fill="#C4D9ED"/>
<path d="M1076.88 1457.99H1052.43V1423.52H1076.88V1457.99Z" fill="#C4D9ED"/>
<path d="M1031.15 1457.99H1006.69V1423.52H1031.15V1457.99Z" fill="#C4D9ED"/>
<path d="M986.439 1457.99H961.983V1423.52H986.439V1457.99Z" fill="#C4D9ED"/>
<path d="M944.048 1457.99H919.591V1423.52H944.048V1457.99Z" fill="#C4D9ED"/>
<path d="M900.841 1457.99H876.385V1423.52H900.841V1457.99Z" fill="#C4D9ED"/>
<path d="M857.142 1457.99H832.687V1423.52H857.142V1457.99Z" fill="#C4D9ED"/>
<path d="M811.41 1457.99H786.952V1423.52H811.41V1457.99Z" fill="#C4D9ED"/>
<path d="M766.699 1457.99H742.243V1423.52H766.699V1457.99Z" fill="#C4D9ED"/>
<path d="M1076.88 1518.83H1052.43V1484.35H1076.88V1518.83" fill="#C4D9ED"/>
<path d="M1031.15 1518.83H1006.69V1484.35H1031.15V1518.83" fill="#C4D9ED"/>
<path d="M986.439 1518.83H961.983V1484.35H986.439V1518.83" fill="#C4D9ED"/>
<path d="M944.048 1518.83H919.591V1484.35H944.048V1518.83" fill="#C4D9ED"/>
<path d="M900.841 1518.83H876.385V1484.35H900.841V1518.83" fill="#C4D9ED"/>
<path d="M857.142 1518.83H832.687V1484.35H857.142V1518.83" fill="#C4D9ED"/>
<path d="M811.41 1518.83H786.952V1484.35H811.41V1518.83" fill="#C4D9ED"/>
<path d="M766.699 1518.83H742.243V1484.35H766.699V1518.83" fill="#C4D9ED"/>
<path d="M724.307 1518.83H699.851V1484.35H724.307V1518.83" fill="#C4D9ED"/>
<path d="M681.103 1518.83H656.646V1484.35H681.103V1518.83" fill="#C4D9ED"/>
<path d="M1076.88 1701.29H1052.43V1666.83H1076.88V1701.29Z" fill="#C4D9ED"/>
<path d="M1031.15 1701.29H1006.69V1666.83H1031.15V1701.29Z" fill="#C4D9ED"/>
<path d="M986.439 1701.29H961.983V1666.83H986.439V1701.29Z" fill="#C4D9ED"/>
<path d="M944.048 1701.29H919.591V1666.83H944.048V1701.29Z" fill="#C4D9ED"/>
<path d="M900.841 1701.29H876.385V1666.83H900.841V1701.29Z" fill="#C4D9ED"/>
<path d="M857.142 1701.29H832.687V1666.83H857.142V1701.29Z" fill="#C4D9ED"/>
<path d="M811.41 1701.29H786.952V1666.83H811.41V1701.29Z" fill="#C4D9ED"/>
<path d="M766.699 1701.29H742.243V1666.83H766.699V1701.29Z" fill="#C4D9ED"/>
<path d="M724.307 1701.29H699.851V1666.83H724.307V1701.29Z" fill="#C4D9ED"/>
<path d="M656.646 1701.29H681.102V1666.83H656.646V1701.29Z" fill="#C4D9ED"/>
<path d="M1076.88 1754.63H1052.43V1720.16H1076.88V1754.63Z" fill="#C4D9ED"/>
<path d="M1031.15 1754.63H1006.69V1720.16H1031.15V1754.63Z" fill="#C4D9ED"/>
<path d="M986.439 1754.63H961.983V1720.16H986.439V1754.63Z" fill="#C4D9ED"/>
<path d="M944.048 1754.63H919.591V1720.16H944.048V1754.63Z" fill="#C4D9ED"/>
<path d="M900.841 1754.63H876.385V1720.16H900.841V1754.63Z" fill="#C4D9ED"/>
<path d="M857.142 1754.63H832.687V1720.16H857.142V1754.63Z" fill="#C4D9ED"/>
<path d="M811.41 1754.63H786.952V1720.16H811.41V1754.63Z" fill="#C4D9ED"/>
<path d="M766.699 1754.63H742.243V1720.16H766.699V1754.63Z" fill="#C4D9ED"/>
<path d="M724.307 1754.63H699.851V1720.16H724.307V1754.63Z" fill="#C4D9ED"/>
<path d="M656.646 1754.63H681.102V1720.16H656.646V1754.63Z" fill="#C4D9ED"/>
<path d="M760.251 1115.13V1205.4H753.197V1115.13H760.251Z" fill="#D5E7F7"/>
<path d="M1072.97 1334.52H1052.43V1298.97H1072.97V1334.52Z" fill="#D5E7F7"/>
<path d="M868.948 1334.52H848.397V1298.97H868.948V1334.52Z" fill="#D5E7F7"/>
<path d="M706.645 1298.97V1334.52H686.095V1298.97H706.645Z" fill="#D5E7F7"/>
<path d="M2362.77 1779.51H1677.48V1378.64H2362.77V1779.51Z" fill="#C4D9ED"/>
<path d="M2126.69 1396.95H2269.69V1272.27L2126.69 1327.03V1396.95" fill="#C4D9ED"/>
<path d="M1421.89 1779.51H1094.64V1423.52L1421.89 1536.81V1779.51Z" fill="#C4D9ED"/>
<path d="M1413.25 1559.6H1103.28V1548.6H1413.25V1559.6" fill="#D5E7F7"/>
<path d="M1413.25 1594.96H1103.28V1583.96H1413.25V1594.96" fill="#D5E7F7"/>
<path d="M1413.25 1630.31H1103.28V1619.31H1413.25V1630.31" fill="#D5E7F7"/>
<path d="M1413.25 1665.67H1103.28V1654.67H1413.25V1665.67" fill="#D5E7F7"/>
<path d="M1413.25 1701.03H1103.28V1690.03H1413.25V1701.03" fill="#D5E7F7"/>
<path d="M1413.25 1736.39H1103.28V1725.39H1413.25V1736.39" fill="#D5E7F7"/>
<path d="M2297.2 1378.64H2269.69V1272.27H2297.2V1378.64Z" fill="#C4D9ED"/>
<path d="M1142.87 754.427H1123.91V593.547H1142.87V754.427Z" fill="#C4D9ED"/>
<path d="M1180.59 754.427H1161.63V593.547H1180.59V754.427Z" fill="#C4D9ED"/>
<path d="M1217.79 754.427H1198.83V593.547H1217.79V754.427Z" fill="#C4D9ED"/>
<path d="M1256.29 754.427H1237.33V593.547H1256.29V754.427Z" fill="#C4D9ED"/>
<path d="M622.31 1517.04L571.511 1512.2L539.096 1537.84L526.74 1585.55L541.999 1618.16L508.616 1604.12L430.951 1691.13L416.8 1765.15L442.926 1783.65H668.246L700.902 1676.99L699.812 1589.91L622.31 1517.04" fill="#F1A34F"/>
<path d="M548.996 1644.67C547.167 1644.67 545.572 1644.55 544.418 1644.28C538.128 1642.83 508.616 1604.12 508.616 1604.12L541.999 1618.16C541.999 1618.16 569.091 1637.03 569.576 1639.93C569.971 1642.29 557.142 1644.67 548.996 1644.67" fill="#EC994A"/>
<path d="M468.372 1757.51C464.113 1757.51 430.951 1691.13 430.951 1691.13L472.036 1721.84C475.505 1724.44 477.176 1728.8 476.319 1733.04C474.492 1742.11 471.131 1756.83 468.46 1757.49C468.432 1757.49 468.403 1757.51 468.372 1757.51" fill="#EC994A"/>
<path d="M656.642 1761.68C647.812 1761.68 630.194 1725.23 632.23 1720.48C634.404 1715.4 693.188 1684.92 693.188 1684.92C693.188 1684.92 666.336 1755.32 658.354 1761.12C657.832 1761.51 657.259 1761.68 656.642 1761.68" fill="#EC994A"/>
<path d="M552.159 1522.36C552.159 1522.36 510.067 1511.24 506.196 1513.17C502.327 1515.11 482.974 1541.72 484.91 1546.55C486.844 1551.39 552.159 1522.36 552.159 1522.36Z" fill="#F1A34F"/>
<path d="M555.06 1496.24L552.159 1522.36L570.059 1506.4C570.059 1506.4 563.285 1493.33 555.06 1496.24Z" fill="#E59545"/>
<path d="M557.843 1524.29C557.843 1523.93 557.238 1518.49 556.271 1518.73C555.303 1518.97 548.771 1522.97 548.771 1523.69C548.771 1524.41 547.562 1529.87 550.103 1529.63C552.642 1529.37 557.843 1524.29 557.843 1524.29Z" fill="#E59545"/>
<path d="M565.805 1567.84C563.633 1567.84 551.167 1553.73 550.223 1551.84C549.256 1549.91 555.545 1527.17 555.545 1527.17C555.545 1527.17 567.64 1567.08 565.947 1567.81C565.907 1567.83 565.859 1567.84 565.805 1567.84Z" fill="#EC994A"/>
<path d="M566.641 1548.49C564.661 1548.49 557.48 1525.99 557.48 1525.99C557.48 1525.99 575.864 1527.44 577.316 1528.89C578.767 1530.35 568.608 1548.24 566.672 1548.49C566.661 1548.49 566.652 1548.49 566.641 1548.49" fill="#EC994A"/>
<path d="M558.529 1524.76L564.715 1521.59C564.873 1521.51 565.045 1521.47 565.219 1521.47C565.361 1521.47 565.504 1521.49 565.639 1521.56L568.217 1522.63C568.78 1522.85 568.66 1523.68 568.056 1523.75L558.529 1524.76" fill="#EC994A"/>
<path d="M551.731 1534.45C551.591 1534.45 551.448 1534.41 551.324 1534.32L550.131 1533.4C549.547 1532.96 549.49 1532.11 550.008 1531.59L553.538 1528.04L552.399 1533.91C552.332 1534.25 552.039 1534.45 551.731 1534.45Z" fill="#EC994A"/>
<path d="M552.763 1522.36C552.219 1522.19 525.55 1519.47 523.372 1520.55C521.195 1521.64 511.216 1530.89 515.208 1531.44C519.199 1531.97 552.763 1522.36 552.763 1522.36Z" fill="#E59545"/>
<path d="M442.925 1783.65C442.925 1783.65 517.609 1772.45 540.543 1772.45C543.305 1772.45 545.312 1772.61 546.352 1772.97C556.028 1776.36 589.412 1783.13 589.412 1783.13C589.412 1783.13 622.96 1774.55 632.96 1774.55C634.096 1774.55 634.928 1774.67 635.373 1774.91C639.727 1777.33 645.533 1783.61 645.533 1783.61L442.925 1783.65" fill="#EC994A"/>
<path d="M3021.44 1649.11V1707.11C3021.44 1710.67 3024.33 1713.56 3027.89 1713.56H3098.56C3102.11 1713.56 3105 1710.67 3105 1707.11V1649.11H3021.44ZM3098.56 1726.89H3027.89C3016.99 1726.89 3008.11 1718.01 3008.11 1707.11V1635.77H3118.33V1707.11C3118.33 1718.01 3109.47 1726.89 3098.56 1726.89Z" fill="#1C2948"/>
<path d="M1240.61 859.44L2466.95 853.24C2484.04 853.16 2497.95 866.987 2497.95 884.094V1462.53L896.604 1552.8V1462.53L1049 1051.67L1240.61 859.44Z" fill="#A8D29F"/>
<path d="M3045.89 1633.2H979.667V1462.53H3045.89V1633.2Z" fill="#1C2948"/>
<path d="M2955.89 1633.2C2955.89 1713.69 2890.64 1778.95 2810.16 1778.95C2729.67 1778.95 2664.43 1713.69 2664.43 1633.2C2664.43 1552.72 2729.67 1487.47 2810.16 1487.47C2890.64 1487.47 2955.89 1552.72 2955.89 1633.2Z" fill="#2D3A62"/>
<path d="M2853.83 1645.39C2854.91 1641.51 2855.49 1637.43 2855.49 1633.2C2855.49 1628.83 2854.85 1624.61 2853.71 1620.6L2884.99 1601.29C2889.17 1611.09 2891.49 1621.88 2891.49 1633.2C2891.49 1644.39 2889.23 1655.04 2885.15 1664.73L2853.83 1645.39ZM2822.53 1713.6V1676.81C2829.48 1674.85 2835.76 1671.27 2840.92 1666.49L2872.17 1685.8C2859.77 1700.4 2842.33 1710.59 2822.53 1713.6V1713.6ZM2789.65 1633.2C2789.65 1621.88 2798.84 1612.71 2810.16 1612.71C2821.48 1612.71 2830.65 1621.88 2830.65 1633.2C2830.65 1644.52 2821.48 1653.71 2810.16 1653.71C2798.84 1653.71 2789.65 1644.52 2789.65 1633.2ZM2797.79 1713.6C2777.99 1710.59 2760.53 1700.4 2748.15 1685.8L2779.4 1666.49C2784.56 1671.27 2790.84 1674.85 2797.79 1676.81V1713.6ZM2735.17 1664.73C2731.08 1655.04 2728.83 1644.39 2728.83 1633.2C2728.83 1621.88 2731.15 1611.09 2735.33 1601.29L2766.61 1620.6C2765.45 1624.61 2764.83 1628.83 2764.83 1633.2C2764.83 1637.43 2765.41 1641.51 2766.49 1645.39L2735.17 1664.73ZM2797.79 1552.81V1589.6C2790.97 1591.52 2784.81 1594.99 2779.71 1599.61L2748.41 1580.29C2760.8 1565.87 2778.12 1555.81 2797.79 1552.81ZM2822.53 1552.81C2842.19 1555.81 2859.52 1565.87 2871.89 1580.29L2840.61 1599.61C2835.51 1594.99 2829.35 1591.52 2822.53 1589.6V1552.81ZM2810.16 1542.91C2760.29 1542.91 2719.87 1583.33 2719.87 1633.2C2719.87 1683.07 2760.29 1723.49 2810.16 1723.49C2860.03 1723.49 2900.45 1683.07 2900.45 1633.2C2900.45 1583.33 2860.03 1542.91 2810.16 1542.91" fill="#98BDF4"/>
<path d="M1715.89 1633.2C1715.89 1713.69 1650.64 1778.95 1570.16 1778.95C1489.67 1778.95 1424.43 1713.69 1424.43 1633.2C1424.43 1552.72 1489.67 1487.47 1570.16 1487.47C1650.64 1487.47 1715.89 1552.72 1715.89 1633.2Z" fill="#2D3A62"/>
<path d="M1613.83 1645.39C1614.91 1641.51 1615.49 1637.43 1615.49 1633.2C1615.49 1628.83 1614.87 1624.61 1613.71 1620.6L1644.99 1601.28C1649.17 1611.09 1651.49 1621.88 1651.49 1633.2C1651.49 1644.39 1649.23 1655.04 1645.15 1664.73L1613.83 1645.39ZM1582.53 1713.6V1676.81C1589.48 1674.85 1595.76 1671.27 1600.92 1666.49L1632.17 1685.8C1619.77 1700.4 1602.33 1710.59 1582.53 1713.6ZM1549.65 1633.2C1549.65 1621.88 1558.84 1612.71 1570.16 1612.71C1581.48 1612.71 1590.65 1621.88 1590.65 1633.2C1590.65 1644.52 1581.48 1653.71 1570.16 1653.71C1558.84 1653.71 1549.65 1644.52 1549.65 1633.2ZM1557.79 1713.6C1537.99 1710.59 1520.53 1700.4 1508.15 1685.8L1539.4 1666.49C1544.56 1671.27 1550.84 1674.85 1557.79 1676.81V1713.6ZM1495.17 1664.73C1491.08 1655.04 1488.83 1644.39 1488.83 1633.2C1488.83 1621.88 1491.15 1611.09 1495.33 1601.28L1526.61 1620.6C1525.45 1624.61 1524.83 1628.83 1524.83 1633.2C1524.83 1637.43 1525.41 1641.51 1526.49 1645.39L1495.17 1664.73ZM1557.79 1552.8V1589.6C1550.97 1591.52 1544.81 1594.99 1539.71 1599.61L1508.41 1580.29C1520.8 1565.87 1538.12 1555.8 1557.79 1552.8V1552.8ZM1582.53 1552.8C1602.19 1555.8 1619.52 1565.87 1631.91 1580.29L1600.61 1599.61C1595.51 1594.99 1589.35 1591.52 1582.53 1589.6V1552.8ZM1570.16 1542.91C1520.29 1542.91 1479.87 1583.33 1479.87 1633.2C1479.87 1683.07 1520.29 1723.49 1570.16 1723.49C1620.03 1723.49 1660.45 1683.07 1660.45 1633.2C1660.45 1583.33 1620.03 1542.91 1570.16 1542.91Z" fill="#98BDF4"/>
<path d="M2034.64 1633.01C2034.64 1713.51 1969.39 1778.75 1888.91 1778.75C1808.41 1778.75 1743.17 1713.51 1743.17 1633.01C1743.17 1552.52 1808.41 1487.28 1888.91 1487.28C1969.39 1487.28 2034.64 1552.52 2034.64 1633.01" fill="#2D3A62"/>
<path d="M1932.57 1645.2C1933.65 1641.32 1934.24 1637.24 1934.24 1633.01C1934.24 1628.64 1933.6 1624.41 1932.45 1620.41L1963.73 1601.09C1967.92 1610.89 1970.24 1621.68 1970.24 1633.01C1970.24 1644.2 1967.97 1654.85 1963.89 1664.55L1932.57 1645.2ZM1901.28 1713.41V1676.63C1908.23 1674.65 1914.51 1671.08 1919.67 1666.31L1950.92 1685.61C1938.52 1700.21 1921.08 1710.39 1901.28 1713.41V1713.41ZM1868.4 1633.01C1868.4 1621.69 1877.59 1612.51 1888.91 1612.51C1900.23 1612.51 1909.4 1621.69 1909.4 1633.01C1909.4 1644.33 1900.23 1653.51 1888.91 1653.51C1877.59 1653.51 1868.4 1644.33 1868.4 1633.01V1633.01ZM1876.53 1713.41C1856.73 1710.39 1839.28 1700.21 1826.89 1685.61L1858.15 1666.31C1863.31 1671.08 1869.59 1674.65 1876.53 1676.63V1713.41ZM1813.92 1664.55C1809.83 1654.85 1807.57 1644.2 1807.57 1633.01C1807.57 1621.68 1809.89 1610.89 1814.08 1601.09L1845.36 1620.41C1844.2 1624.41 1843.57 1628.64 1843.57 1633.01C1843.57 1637.24 1844.16 1641.32 1845.24 1645.2L1813.92 1664.55ZM1876.53 1552.61V1589.4C1869.72 1591.33 1863.56 1594.8 1858.45 1599.43L1827.16 1580.11C1839.55 1565.67 1856.87 1555.61 1876.53 1552.61V1552.61ZM1901.28 1552.61C1920.93 1555.61 1938.27 1565.67 1950.64 1580.11L1919.35 1599.43C1914.25 1594.8 1908.08 1591.33 1901.28 1589.4V1552.61ZM1888.91 1542.72C1839.04 1542.72 1798.61 1583.15 1798.61 1633.01C1798.61 1682.88 1839.04 1723.31 1888.91 1723.31C1938.77 1723.31 1979.2 1682.88 1979.2 1633.01C1979.2 1583.15 1938.77 1542.72 1888.91 1542.72" fill="#98BDF4"/>
<path d="M3080.6 859.334H2708.12C2684.24 859.334 2664.59 878.107 2663.49 901.96L2638.79 1442H2634.33C2591.63 1442 2557 1476.63 2557 1519.33V1703.75C2557 1714.65 2565.84 1723.49 2576.75 1723.49H2630.41C2641.32 1723.49 2650.16 1714.65 2650.16 1703.75V1633.2C2650.16 1542.96 2724.87 1470.17 2815.8 1473.31C2898.15 1476.13 2965.41 1541.97 2969.92 1624.25C2970.47 1634.28 2970.08 1644.12 2968.85 1653.71H3218.77V1180.23L3129.61 895.347C3122.89 873.92 3103.05 859.334 3080.6 859.334Z" fill="#A8D29F"/>
<path d="M2926.79 1487.47C2969.48 1521.68 2996.83 1574.24 2996.83 1633.2C2996.83 1635.03 2996.79 1636.85 2996.73 1638.67H3129.33V1487.47H2926.79Z" fill="#82B378"/>
<path d="M3132.83 905.641H3033.88C3027.8 905.641 3023.72 911.867 3026.16 917.441L3131.31 1158.24C3134.03 1164.47 3139.72 1168.87 3146.41 1169.93L3219.23 1181.56L3132.83 905.641" fill="#98BDF4"/>
<path d="M3064.8 1167.33H2835.44C2827.21 1167.33 2820.55 1160.67 2820.55 1152.44V927.56C2820.55 919.334 2827.21 912.667 2835.44 912.667H2980.03C2986.23 912.667 2991.79 916.507 2993.97 922.307L3078.73 1147.19C3082.41 1156.93 3075.21 1167.33 3064.8 1167.33Z" fill="#98BDF4"/>
<path d="M2677.48 1168.17H2785.64C2789.4 1168.17 2792.45 1165.11 2792.45 1161.35V919.48C2792.45 915.72 2789.4 912.667 2785.64 912.667H2688.84C2685.2 912.667 2682.2 915.534 2682.03 919.174L2670.67 1161.03C2670.48 1164.92 2673.59 1168.17 2677.48 1168.17" fill="#82B378"/>
<path d="M2669.76 1424.89H2580.88L2972.28 735.24H3061.16L2669.76 1424.89Z" fill="#D5E7F7"/>
<path d="M2724.91 1437.48H2701.48L3092.88 747.84H3116.32L2724.91 1437.48Z" fill="#D5E7F7"/>
<path d="M2882.33 1412.29H2837.89L3229.29 722.654H3273.73L2882.33 1412.29Z" fill="#D5E7F7"/>
<path d="M2835.44 919.334C2830.91 919.334 2827.21 923.027 2827.21 927.561V1152.44C2827.21 1156.97 2830.91 1160.67 2835.44 1160.67H3064.8C3067.55 1160.67 3070.01 1159.37 3071.57 1157.12C3073.13 1154.87 3073.47 1152.11 3072.51 1149.53L2987.73 924.654C2986.53 921.481 2983.44 919.334 2980.03 919.334H2835.44ZM3064.8 1174H2835.44C2823.55 1174 2813.88 1164.33 2813.88 1152.44V927.561C2813.88 915.667 2823.55 906 2835.44 906H2980.03C2988.95 906 2997.05 911.614 3000.2 919.961L3084.97 1144.84C3087.48 1151.45 3086.56 1158.88 3082.53 1164.71C3078.51 1170.52 3071.88 1174 3064.8 1174" fill="#163560"/>
<path d="M2878.55 1374.81H2789.65L3181.05 685.174H3269.95L2878.55 1374.81Z" fill="#D5E7F7"/>
<path d="M2933.69 1387.4H2910.25L3301.65 697.76H3325.09L2933.69 1387.4Z" fill="#D5E7F7"/>
<path d="M3091.11 1362.23H3046.67L3438.07 672.574H3482.51L3091.11 1362.23Z" fill="#D5E7F7"/>
<path d="M3033.88 912.307C3033.09 912.307 3032.64 912.734 3032.4 913.107C3032.16 913.467 3031.95 914.054 3032.27 914.774L3137.41 1155.57C3139.23 1159.73 3142.99 1162.64 3147.47 1163.36L3209.64 1173.28L3127.93 912.307H3033.88ZM3219.23 1188.23C3218.88 1188.23 3218.52 1188.2 3218.17 1188.13L3145.36 1176.52C3136.39 1175.09 3128.84 1169.25 3125.2 1160.92L3020.04 920.107C3018 915.427 3018.45 910.08 3021.25 905.8C3024.05 901.52 3028.77 898.974 3033.88 898.974H3132.83C3135.75 898.974 3138.32 900.867 3139.19 903.64L3225.59 1179.56C3226.28 1181.76 3225.77 1184.17 3224.27 1185.92C3222.99 1187.39 3221.15 1188.23 3219.23 1188.23" fill="#163560"/>
<path d="M3193 1424.67H3218.77V1232.67H3193V1424.67Z" fill="#B64C41"/>
<path d="M3225.44 1689.11H3157.44C3150.08 1689.11 3144.11 1683.15 3144.11 1675.77V1496.67C3144.11 1489.31 3150.08 1483.33 3157.44 1483.33H3225.44C3232.81 1483.33 3238.77 1489.31 3238.77 1496.67V1675.77C3238.77 1683.15 3232.81 1689.11 3225.44 1689.11Z" fill="#A8D29F"/>
<path d="M3144.11 1675.77C3144.11 1683.15 3150.08 1689.11 3157.44 1689.11H3225.44C3232.81 1689.11 3238.77 1683.15 3238.77 1675.77H3144.11Z" fill="#82B378"/>
<path d="M3092.56 1473.56C3089.61 1473.56 3087.23 1471.17 3087.23 1468.23V1178.44C3087.23 1175.49 3089.61 1173.11 3092.56 1173.11C3095.51 1173.11 3097.89 1175.49 3097.89 1178.44V1468.23C3097.89 1471.17 3095.51 1473.56 3092.56 1473.56Z" fill="#82B378"/>
<path d="M2820.55 1348.67C2817.6 1348.67 2815.21 1346.28 2815.21 1343.33V1186.89C2815.21 1183.95 2817.6 1181.56 2820.55 1181.56C2823.49 1181.56 2825.88 1183.95 2825.88 1186.89V1343.33C2825.88 1346.28 2823.49 1348.67 2820.55 1348.67Z" fill="#82B378"/>
<path d="M2891.49 1398.89H2820.55V1371.33H2891.49V1398.89Z" fill="#2D3A62"/>
<path d="M3033.44 859.333H2715.67V847.773C2715.67 840.413 2721.64 834.44 2729 834.44H2975.03C2989.35 834.44 3003.32 838.76 3015.15 846.84L3033.44 859.333" fill="#A8D29F"/>
<path d="M3015.15 846.84L2715.67 847.773V859.333H3033.44L3015.15 846.84Z" fill="#82B378"/>
<path d="M1278.63 1591.36H834.478C824.726 1591.36 816.82 1583.45 816.82 1573.71V1552.65C816.82 1548.45 818.32 1544.39 821.05 1541.19L1420.91 838.56C1423.13 835.947 1426.4 834.44 1429.84 834.44H1473.77C1481.41 834.44 1487.03 841.627 1485.16 849.04L1303.71 1571.79C1300.83 1583.29 1290.48 1591.36 1278.63 1591.36" fill="#A8D29F"/>
<path d="M795.223 1735.33H1243.67C1254.71 1735.33 1263.67 1726.37 1263.67 1715.33V1636.92C1263.67 1625.88 1254.71 1616.92 1243.67 1616.92H795.223C784.176 1616.92 775.223 1625.88 775.223 1636.92V1715.33C775.223 1726.37 784.176 1735.33 795.223 1735.33Z" fill="#A8D29F"/>
<path d="M775.223 1715.33C775.223 1726.37 784.176 1735.33 795.223 1735.33H1243.67C1254.71 1735.33 1263.67 1726.37 1263.67 1715.33H775.223Z" fill="#82B378"/>
<path d="M1176.73 1537.85C1165.17 1530.09 1149.51 1533.19 1141.75 1544.76C1135.97 1553.39 1136.23 1564.28 1141.52 1572.48L1098.57 1636.56C1088.99 1634.79 1078.81 1638.71 1073.03 1647.33C1065.28 1658.89 1068.37 1674.56 1079.95 1682.31C1091.52 1690.07 1107.17 1686.97 1114.93 1675.4C1120.71 1666.77 1120.45 1655.88 1115.16 1647.68L1158.11 1583.6C1167.69 1585.37 1177.87 1581.45 1183.65 1572.84C1191.4 1561.27 1188.31 1545.6 1176.73 1537.85" fill="#A8D29F"/>
<path d="M1157.2 1530.96C1149.77 1532.44 1143.35 1536.71 1139.13 1543C1133.21 1551.84 1132.76 1563.15 1137.79 1572.39L1097.07 1633.16C1094.21 1632.85 1091.33 1632.97 1088.48 1633.53C1081.04 1635 1074.63 1639.28 1070.41 1645.57C1061.71 1658.57 1065.2 1676.23 1078.19 1684.93C1084.48 1689.15 1092.04 1690.67 1099.48 1689.2C1106.92 1687.72 1113.33 1683.45 1117.55 1677.16C1123.47 1668.32 1123.92 1657.01 1118.89 1647.79L1159.61 1587C1162.48 1587.32 1165.36 1587.19 1168.2 1586.63C1175.64 1585.16 1182.05 1580.88 1186.27 1574.59C1194.97 1561.6 1191.49 1543.93 1178.49 1535.23C1172.2 1531.01 1164.64 1529.49 1157.2 1530.96ZM1157.81 1534.05C1164.15 1532.81 1170.95 1533.97 1176.73 1537.85C1188.31 1545.6 1191.4 1561.27 1183.65 1572.84C1179.77 1578.61 1173.92 1582.28 1167.6 1583.53C1164.49 1584.15 1161.27 1584.17 1158.11 1583.6L1115.16 1647.68C1120.45 1655.88 1120.71 1666.77 1114.93 1675.4C1111.05 1681.19 1105.2 1684.85 1098.87 1686.11C1092.53 1687.36 1085.73 1686.19 1079.95 1682.31C1068.37 1674.56 1065.28 1658.89 1073.03 1647.33C1076.91 1641.55 1082.76 1637.88 1089.09 1636.63C1092.2 1636.01 1095.41 1635.99 1098.57 1636.56L1141.52 1572.48C1136.23 1564.28 1135.97 1553.39 1141.75 1544.76C1145.63 1538.97 1151.48 1535.31 1157.81 1534.05" fill="#82B378"/>
<path d="M1172.52 1565.37C1168.89 1570.8 1161.55 1572.25 1156.12 1568.61C1150.69 1564.99 1149.25 1557.64 1152.88 1552.21C1156.52 1546.8 1163.85 1545.35 1169.28 1548.97C1174.71 1552.61 1176.16 1559.96 1172.52 1565.37Z" fill="#82B378"/>
<path d="M1103.8 1667.95C1100.17 1673.37 1092.83 1674.81 1087.4 1671.19C1081.97 1667.55 1080.53 1660.21 1084.16 1654.79C1087.8 1649.36 1095.13 1647.91 1100.56 1651.55C1105.99 1655.17 1107.44 1662.52 1103.8 1667.95Z" fill="#82B378"/>
<path d="M1115.16 1647.68L1158.11 1583.6C1154.83 1582.99 1151.61 1581.72 1148.67 1579.75L1108.01 1640.41C1110.96 1642.39 1113.36 1644.88 1115.16 1647.68" fill="#82B378"/>
<path d="M1023.83 1537.85C1012.26 1530.09 996.6 1533.19 988.848 1544.76C983.069 1553.39 983.321 1564.28 988.612 1572.48L945.675 1636.56C936.077 1634.79 925.904 1638.71 920.127 1647.33C912.375 1658.89 915.469 1674.56 927.04 1682.31C938.609 1690.07 954.273 1686.97 962.025 1675.4C967.804 1666.77 967.552 1655.88 962.26 1647.68L1005.2 1583.6C1014.8 1585.37 1024.97 1581.45 1030.75 1572.84C1038.49 1561.27 1035.4 1545.6 1023.83 1537.85" fill="#A8D29F"/>
<path d="M1004.3 1530.96C996.864 1532.44 990.447 1536.71 986.228 1543C980.314 1551.84 979.854 1563.15 984.888 1572.39L944.164 1633.16C941.304 1632.85 938.423 1632.97 935.572 1633.53C928.14 1635 921.724 1639.28 917.508 1645.57C908.802 1658.57 912.29 1676.23 925.284 1684.93C931.58 1689.15 939.142 1690.67 946.576 1689.2C954.01 1687.72 960.427 1683.45 964.644 1677.16C970.56 1668.32 971.02 1657.01 965.986 1647.79L1006.71 1587C1009.57 1587.32 1012.45 1587.19 1015.3 1586.63C1022.73 1585.16 1029.15 1580.88 1033.37 1574.59C1042.07 1561.6 1038.59 1543.93 1025.59 1535.23C1019.29 1531.01 1011.73 1529.49 1004.3 1530.96ZM1004.91 1534.05C1011.24 1532.81 1018.05 1533.97 1023.83 1537.85C1035.4 1545.6 1038.49 1561.27 1030.75 1572.84C1026.87 1578.61 1021.02 1582.28 1014.69 1583.53C1011.58 1584.15 1008.36 1584.17 1005.2 1583.6L962.26 1647.68C967.552 1655.88 967.804 1666.77 962.026 1675.4C958.15 1681.19 952.296 1684.85 945.964 1686.11C939.634 1687.36 932.824 1686.19 927.04 1682.31C915.47 1674.56 912.375 1658.89 920.127 1647.33C924.002 1641.55 929.854 1637.88 936.184 1636.63C939.291 1636.01 942.515 1635.99 945.675 1636.56L988.612 1572.48C983.322 1564.28 983.07 1553.39 988.848 1544.76C992.723 1538.97 998.578 1535.31 1004.91 1534.05" fill="#82B378"/>
<path d="M1019.62 1565.37C1015.98 1570.8 1008.64 1572.25 1003.22 1568.61C997.794 1564.99 996.343 1557.64 999.976 1552.21C1003.61 1546.8 1010.95 1545.35 1016.38 1548.97C1021.8 1552.61 1023.25 1559.96 1019.62 1565.37Z" fill="#82B378"/>
<path d="M950.896 1667.95C947.263 1673.37 939.92 1674.81 934.496 1671.19C929.074 1667.55 927.623 1660.21 931.256 1654.79C934.89 1649.36 942.232 1647.91 947.656 1651.55C953.08 1655.17 954.53 1662.52 950.896 1667.95Z" fill="#82B378"/>
<path d="M962.26 1647.68L1005.2 1583.6C1001.92 1582.99 998.707 1581.72 995.76 1579.75L955.112 1640.41C958.059 1642.39 960.452 1644.88 962.26 1647.68Z" fill="#82B378"/>
<path d="M1428.64 873.213H1464.17C1467.33 873.213 1469.63 876.213 1468.8 879.267L1325.09 1411.24C1321.72 1423.75 1310.37 1432.45 1297.41 1432.48L978.929 1433.16C969.669 1433.17 964.618 1422.36 970.578 1415.27L1424.92 874.96C1425.84 873.854 1427.2 873.213 1428.64 873.213" fill="#82B378"/>
<path d="M1331.13 1462.53L1482.85 858.214H1494.33L1345 1462.53H1331.13Z" fill="#82B378"/>
<path d="M2220.11 847.774H2208.56C2202.91 847.774 2198.33 852.36 2198.33 858V1462.53H2230.33V858C2230.33 852.36 2225.76 847.774 2220.11 847.774Z" fill="#82B378"/>
<path d="M1953.44 847.774H1941.89C1936.24 847.774 1931.67 852.36 1931.67 858V1462.53H1963.67V858C1963.67 852.36 1959.09 847.774 1953.44 847.774Z" fill="#82B378"/>
<path d="M1673.44 847.774H1661.89C1656.24 847.774 1651.67 852.36 1651.67 858V1462.53H1683.67V858C1683.67 852.36 1679.09 847.774 1673.44 847.774" fill="#82B378"/>
<path d="M2206.77 847.774H2195.23C2189.57 847.774 2185 852.36 2185 858V1462.53H2217V858C2217 852.36 2212.43 847.774 2206.77 847.774Z" fill="#A8D29F"/>
<path d="M1940.11 847.774H1928.56C1922.91 847.774 1918.33 852.36 1918.33 858V1462.53H1950.33V858C1950.33 852.36 1945.76 847.774 1940.11 847.774Z" fill="#A8D29F"/>
<path d="M1660.11 847.774H1648.56C1642.91 847.774 1638.33 852.36 1638.33 858V1462.53H1670.33V858C1670.33 852.36 1665.76 847.774 1660.11 847.774" fill="#A8D29F"/>
<path d="M2051.23 1414H1414.77C1393.43 1414 1376.11 1431.31 1376.11 1452.67V1684.83C1376.11 1704.63 1390.99 1720.95 1410.17 1723.21L1410.16 1633.2C1410.16 1544.84 1481.8 1473.2 1570.16 1473.2C1627.15 1473.2 1677.16 1503.01 1705.51 1547.87H1753.44C1781.76 1502.91 1831.84 1473.01 1888.91 1473.01C1977.27 1473.01 2048.91 1544.65 2048.91 1633.01L2048.88 1723.49H2051.23C2072.57 1723.49 2089.89 1706.19 2089.89 1684.83V1452.67C2089.89 1431.31 2072.57 1414 2051.23 1414Z" fill="#A8D29F"/>
<path d="M2048.89 1675.77L2048.88 1723.49H2051.23C2072.57 1723.49 2089.89 1706.19 2089.89 1684.83V1675.77H2048.89Z" fill="#82B378"/>
<path d="M1376.11 1675.77V1684.83C1376.11 1704.63 1390.99 1720.95 1410.17 1723.21V1675.77H1376.11Z" fill="#82B378"/>
<path d="M2089.89 1452.67V1462.53H2116.56V1452.67C2116.56 1431.31 2099.24 1414 2077.89 1414H2051.23C2072.57 1414 2089.89 1431.31 2089.89 1452.67Z" fill="#82B378"/>
<path d="M1270.33 1014.93V858C1270.33 852.36 1265.76 847.774 1260.11 847.774H1248.56C1242.91 847.774 1238.33 852.36 1238.33 858V1052.41L1270.33 1014.93" fill="#82B378"/>
<path d="M1257 1030.55V858C1257 852.36 1252.43 847.773 1246.77 847.773H1235.23C1229.57 847.773 1225 852.36 1225 858V1068.03L1257 1030.55" fill="#A8D29F"/>
<path d="M2878.33 834.44H2799.67V791C2799.67 777.187 2810.85 766 2824.67 766H2853.33C2867.15 766 2878.33 777.187 2878.33 791V834.44Z" fill="#B64C41"/>
<path d="M2820.55 809.8C2820.55 795.987 2831.73 784.8 2845.55 784.8H2874.21C2875.36 784.8 2876.48 784.907 2877.59 785.054C2874.92 774.121 2865.08 766 2853.33 766H2824.67C2810.85 766 2799.67 777.187 2799.67 791V834.44H2820.55V809.8" fill="#D6716B"/>
<path d="M890.584 1487.47H866.919L883.444 1468.44L907.042 1468.41L890.584 1487.47Z" fill="#F1A34F"/>
<path d="M907.042 1468.41L883.444 1468.44L899.843 1449.56L923.37 1449.51L907.042 1468.41" fill="#B64C41"/>
<path d="M923.369 1449.51L899.843 1449.56L916.113 1430.83L939.572 1430.75L923.369 1449.51" fill="#F1A34F"/>
<path d="M939.572 1430.75L916.113 1430.83L932.259 1412.23L955.649 1412.13L939.572 1430.75" fill="#B64C41"/>
<path d="M955.649 1412.13L932.259 1412.23L948.279 1393.79L971.601 1393.65L955.649 1412.13Z" fill="#F1A34F"/>
<path d="M971.601 1393.65L948.279 1393.79L964.178 1375.48L987.432 1375.32L971.601 1393.65Z" fill="#B64C41"/>
<path d="M987.432 1375.32L964.177 1375.48L979.953 1357.31L1003.14 1357.13L987.432 1375.32" fill="#F1A34F"/>
<path d="M1003.14 1357.13L979.954 1357.31L995.611 1339.28L1018.73 1339.08L1003.14 1357.13Z" fill="#B64C41"/>
<path d="M1018.73 1339.08L995.611 1339.28L1011.15 1321.39L1034.2 1321.17L1018.73 1339.08Z" fill="#F1A34F"/>
<path d="M1034.2 1321.17L1011.15 1321.39L1026.57 1303.64L1049.56 1303.39L1034.2 1321.17Z" fill="#B64C41"/>
<path d="M1049.56 1303.39L1026.57 1303.64L1041.88 1286.01L1064.8 1285.75L1049.56 1303.39Z" fill="#F1A34F"/>
<path d="M1064.8 1285.75L1041.88 1286.01L1057.07 1268.52L1079.92 1268.23L1064.8 1285.75Z" fill="#B64C41"/>
<path d="M1079.92 1268.23L1057.07 1268.52L1072.13 1251.16L1094.93 1250.84L1079.92 1268.23Z" fill="#F1A34F"/>
<path d="M1094.93 1250.84L1072.13 1251.16L1087.11 1233.93L1109.83 1233.59L1094.93 1250.84" fill="#B64C41"/>
<path d="M1109.83 1233.59L1087.11 1233.93L1101.96 1216.83L1124.61 1216.47L1109.83 1233.59Z" fill="#F1A34F"/>
<path d="M1124.61 1216.47L1101.96 1216.83L1116.71 1199.85L1139.29 1199.47L1124.61 1216.47Z" fill="#B64C41"/>
<path d="M2460.56 1329.2H2217V1313.2H2460.56C2464.97 1313.2 2468.56 1316.79 2468.56 1321.2C2468.56 1325.63 2464.97 1329.2 2460.56 1329.2Z" fill="#82B378"/>
<path d="M2193.89 1329.2H1950.33V1313.2H2193.89C2198.31 1313.2 2201.89 1316.79 2201.89 1321.2C2201.89 1325.63 2198.31 1329.2 2193.89 1329.2Z" fill="#82B378"/>
<path d="M1913.89 1329.2H1670.33V1313.2H1913.89C1918.31 1313.2 1921.89 1316.79 1921.89 1321.2C1921.89 1325.63 1918.31 1329.2 1913.89 1329.2Z" fill="#82B378"/>
<path d="M1647.23 1329.2H1370.33L1374.33 1313.2H1647.23C1651.64 1313.2 1655.23 1316.79 1655.23 1321.2C1655.23 1325.63 1651.64 1329.2 1647.23 1329.2Z" fill="#82B378"/>
<path d="M2460.56 1195.87H2217V1179.87H2460.56C2464.97 1179.87 2468.56 1183.45 2468.56 1187.87C2468.56 1192.29 2464.97 1195.87 2460.56 1195.87Z" fill="#82B378"/>
<path d="M2193.89 1195.87H1950.33V1179.87H2193.89C2198.31 1179.87 2201.89 1183.45 2201.89 1187.87C2201.89 1192.29 2198.31 1195.87 2193.89 1195.87Z" fill="#82B378"/>
<path d="M1913.89 1195.87H1670.33V1179.87H1913.89C1918.31 1179.87 1921.89 1183.45 1921.89 1187.87C1921.89 1192.29 1918.31 1195.87 1913.89 1195.87Z" fill="#82B378"/>
<path d="M1647.23 1195.87H1401L1405 1179.87H1647.23C1651.64 1179.87 1655.23 1183.45 1655.23 1187.87C1655.23 1192.29 1651.64 1195.87 1647.23 1195.87Z" fill="#82B378"/>
<path d="M2460.56 1062.53H2217V1046.53H2460.56C2464.97 1046.53 2468.56 1050.12 2468.56 1054.53C2468.56 1058.96 2464.97 1062.53 2460.56 1062.53Z" fill="#82B378"/>
<path d="M2193.89 1062.53H1950.33V1046.53H2193.89C2198.31 1046.53 2201.89 1050.12 2201.89 1054.53C2201.89 1058.96 2198.31 1062.53 2193.89 1062.53Z" fill="#82B378"/>
<path d="M1913.89 1062.53H1670.33V1046.53H1913.89C1918.31 1046.53 1921.89 1050.12 1921.89 1054.53C1921.89 1058.96 1918.31 1062.53 1913.89 1062.53Z" fill="#82B378"/>
<path d="M1647.23 1062.53H1433L1437 1046.53H1647.23C1651.64 1046.53 1655.23 1050.12 1655.23 1054.53C1655.23 1058.96 1651.64 1062.53 1647.23 1062.53Z" fill="#82B378"/>
<path d="M2460.56 929.2H2217V913.2H2460.56C2464.97 913.2 2468.56 916.787 2468.56 921.2C2468.56 925.627 2464.97 929.2 2460.56 929.2Z" fill="#82B378"/>
<path d="M2193.89 929.2H1950.33V913.2H2193.89C2198.31 913.2 2201.89 916.787 2201.89 921.2C2201.89 925.627 2198.31 929.2 2193.89 929.2Z" fill="#82B378"/>
<path d="M1913.89 929.2H1670.33V913.2H1913.89C1918.31 913.2 1921.89 916.787 1921.89 921.2C1921.89 925.627 1918.31 929.2 1913.89 929.2Z" fill="#82B378"/>
<path d="M1647.23 929.2H1468.33L1472.33 913.2H1647.23C1651.64 913.2 1655.23 916.787 1655.23 921.2C1655.23 925.627 1651.64 929.2 1647.23 929.2Z" fill="#82B378"/>
<path d="M3137.44 1276.23H3126.33C3121.17 1276.23 3117 1272.04 3117 1266.89V1242C3117 1236.84 3121.17 1232.67 3126.33 1232.67H3137.44C3142.6 1232.67 3146.77 1236.84 3146.77 1242V1266.89C3146.77 1272.04 3142.6 1276.23 3137.44 1276.23Z" fill="#F1A34F"/>
<path d="M2497.67 1675.77H2169.67C2154.57 1675.77 2142.33 1663.55 2142.33 1648.44V1551.33C2142.33 1536.24 2154.57 1524 2169.67 1524H2497.67C2512.76 1524 2525 1536.24 2525 1551.33V1648.44C2525 1663.55 2512.76 1675.77 2497.67 1675.77Z" fill="#A8D29F"/>
<path d="M2142.33 1648.33V1648.44C2142.33 1663.55 2154.57 1675.77 2169.67 1675.77H2497.67C2512.76 1675.77 2525 1663.55 2525 1648.44V1648.33H2142.33Z" fill="#82B378"/>
<path d="M2240.77 1648.33H2223.89V1523.77C2223.89 1521.57 2225.68 1519.77 2227.89 1519.77H2236.77C2238.99 1519.77 2240.77 1521.57 2240.77 1523.77V1648.33Z" fill="#82B378"/>
<path d="M2454.11 1648.33H2437.23V1523.77C2437.23 1521.57 2439.01 1519.77 2441.23 1519.77H2450.11C2452.32 1519.77 2454.11 1521.57 2454.11 1523.77V1648.33Z" fill="#82B378"/>
<path d="M2235.44 1648.33H2218.56V1523.77C2218.56 1521.57 2220.35 1519.77 2222.56 1519.77H2231.44C2233.65 1519.77 2235.44 1521.57 2235.44 1523.77V1648.33Z" fill="#A8D29F"/>
<path d="M2448.77 1648.33H2431.89V1523.77C2431.89 1521.57 2433.68 1519.77 2435.89 1519.77H2444.77C2446.99 1519.77 2448.77 1521.57 2448.77 1523.77V1648.33Z" fill="#A8D29F"/>
<path d="M2189.39 1577.28H2180.61C2170.79 1577.28 2162.84 1585.84 2162.84 1596.39C2162.84 1606.95 2170.79 1615.51 2180.61 1615.51H2189.39C2199.21 1615.51 2207.17 1606.95 2207.17 1596.39C2207.17 1585.84 2199.21 1577.28 2189.39 1577.28Z" fill="#82B378"/>
<path d="M2191.72 1596.45C2191.72 1605.87 2185.85 1613.51 2178.61 1613.51C2171.37 1613.51 2165.51 1605.87 2165.51 1596.45C2165.51 1587.03 2171.37 1579.39 2178.61 1579.39C2185.85 1579.39 2191.72 1587.03 2191.72 1596.45Z" fill="#A8D29F"/>
<path d="M2630.59 1723.49H2576.75C2565.84 1723.49 2557 1714.65 2557 1703.75H2650.33C2650.33 1714.65 2641.49 1723.49 2630.59 1723.49" fill="#82B378"/>
<path d="M500.148 1126.25C500.148 1126.25 535.256 1228.88 551.386 1248.36C567.515 1267.83 624.109 1296.61 624.603 1299.17C625.775 1305.29 621.096 1314.83 615.797 1314.87C596.983 1314.96 558.851 1300.67 541.188 1283.73C522.499 1265.83 492.917 1163.48 492.917 1163.48L500.148 1126.25" fill="#D68D5D"/>
<path d="M820.556 1695.33H810.118C796.126 1695.33 784.784 1714.05 784.784 1737.13C784.784 1760.23 796.126 1778.95 810.118 1778.95H820.556C834.547 1778.95 845.89 1760.23 845.89 1737.13C845.89 1714.05 834.547 1695.33 820.556 1695.33Z" fill="#233862"/>
<path d="M791.014 1752.84H650.771C636.194 1752.84 624.156 1741.45 623.354 1726.89L598.118 1309.07H843.667L818.431 1726.89C817.628 1741.45 805.591 1752.84 791.014 1752.84" fill="#AA3E39"/>
<path d="M831.014 1752.84H690.771C676.194 1752.84 663.354 1750.65 663.354 1726.89L638.118 1309.07H883.667L858.431 1726.89C858.431 1752.84 845.591 1752.84 831.014 1752.84" fill="#B84C42"/>
<path d="M833.505 1277.68H602.495C593.569 1277.68 586.333 1284.91 586.333 1293.84V1309H849.667V1293.84C849.667 1284.91 842.431 1277.68 833.505 1277.68Z" fill="#233862"/>
<path d="M881.505 1277.68H650.495C641.569 1277.68 634.333 1284.91 634.333 1293.84V1309H897.667V1293.84C897.667 1284.91 890.431 1277.68 881.505 1277.68Z" fill="#2B478B"/>
<path d="M633.89 1695.33H623.451C609.459 1695.33 598.118 1714.05 598.118 1737.13C598.118 1760.23 609.459 1778.95 623.451 1778.95H633.89C647.88 1778.95 659.223 1760.23 659.223 1737.13C659.223 1714.05 647.88 1695.33 633.89 1695.33Z" fill="#2B478B"/>
<path d="M642.035 1737.13C642.035 1754.07 633.715 1767.8 623.451 1767.8C613.187 1767.8 604.866 1754.07 604.866 1737.13C604.866 1720.2 613.187 1706.47 623.451 1706.47C633.715 1706.47 642.035 1720.2 642.035 1737.13Z" fill="#233862"/>
<path d="M451.657 1744.53C451.657 1744.53 447.528 1778.11 454.112 1779.64C456.664 1780.24 532.553 1779.48 532.553 1779.48C532.553 1779.48 532.553 1770.41 520.121 1768.4C507.689 1766.39 485.849 1758.99 482.153 1742.52C478.457 1726.05 451.657 1744.53 451.657 1744.53" fill="#233862"/>
<path d="M526.769 1569.59C526.769 1598.23 493.688 1749.4 493.688 1749.4C493.688 1749.4 460.319 1755.4 445.9 1741.07C445.9 1741.07 449.033 1600.84 454.049 1571.01C455.064 1564.97 453.453 1556.05 450.319 1545.23C437.963 1502.55 401.997 1430.13 410.248 1387.21C420.591 1333.4 493.688 1391.37 493.688 1391.37C493.688 1391.37 496.885 1405.81 501.287 1426.59C511.053 1472.67 526.769 1549.85 526.769 1569.59" fill="#2B478B"/>
<path d="M501.287 1426.59L450.319 1545.23C437.963 1502.55 401.997 1430.13 410.248 1387.21C420.591 1333.4 493.688 1391.37 493.688 1391.37C493.688 1391.37 496.885 1405.81 501.287 1426.59" fill="#233862"/>
<path d="M266.177 1714.47C266.177 1714.47 252.401 1727.23 255.089 1736.31C257.777 1745.37 270.209 1751.43 271.889 1762.51C273.569 1773.6 280.289 1779.64 286.337 1779.64C292.387 1779.64 315.172 1779.64 315.172 1779.64C315.172 1779.64 319.624 1771.84 308.872 1769.49C298.12 1767.13 294.065 1754.11 294.737 1742.01C295.409 1729.92 293.73 1713.79 293.73 1713.79L270.881 1708.41L266.177 1714.47" fill="#233862"/>
<path d="M495.007 1359.17C495.007 1359.17 408.307 1526.36 359.922 1613.05C311.538 1699.75 296.418 1723.93 296.418 1723.93C296.418 1723.93 268.698 1712.84 266.178 1705.28C266.178 1705.28 291.055 1561.87 331.26 1511.21C349.562 1488.16 348.73 1423.12 354.163 1386.76C357.742 1362.8 374.034 1320.51 374.034 1320.51L495.007 1359.17Z" fill="#2B478B"/>
<path d="M529.284 1112.11C538.292 1122.92 541.571 1133.93 541.571 1133.93C511.485 1131.87 474.135 1090.88 474.135 1090.88C474.135 1090.88 495.957 1084.85 511.341 1060.73C512.119 1059.52 512.877 1058.25 513.611 1056.96C515.956 1052.81 518.093 1048.19 519.917 1043.04L528.839 1058.68L543.671 1084.69C543.671 1084.69 540.568 1092.4 533.409 1105.04C532.161 1107.25 530.788 1109.61 529.284 1112.11" fill="#E49963"/>
<path d="M550.743 1177.29C549.815 1191.91 545.408 1214.05 539.42 1238.63C537.095 1248.15 534.537 1258.03 531.853 1267.97C527.497 1284.11 522.959 1300.35 518.276 1315.64L518.1 1316.17C517.761 1317.73 517.235 1319.39 516.759 1320.89C512.696 1334.39 508.803 1346.88 505.412 1357.49C498.917 1377.77 498.873 1389.08 493.688 1391.37C483.272 1395.97 442.259 1391.03 417.685 1380.39C396.921 1371.55 365.284 1344.88 365.445 1331.47C365.633 1315.91 386.507 1269.08 400.343 1214.4C417.413 1147.61 455.277 1094.28 486.855 1083.28C489.212 1082.51 491.732 1087.47 500.885 1096.25C509.341 1104.37 519.993 1109.43 530.073 1110.51L536.085 1120.55C544.229 1134.89 552.253 1153.45 550.743 1177.29" fill="#80BDCC"/>
<path d="M539.42 1238.63C537.095 1248.15 534.537 1258.03 531.853 1267.97C527.497 1284.11 522.959 1300.35 518.276 1315.64L518.1 1316.17C517.761 1317.73 517.235 1319.39 516.759 1320.89C512.696 1334.39 508.803 1346.88 505.412 1357.49C439.737 1274.07 459.667 1162 459.667 1162L539.42 1238.63Z" fill="#5F9AA8"/>
<path d="M543.671 1084.69C543.671 1084.69 540.568 1092.4 533.409 1105.04C514.977 1091.48 511.831 1069.69 511.341 1060.73C511.197 1058.2 511.273 1056.69 511.273 1056.69C511.273 1056.69 512.132 1056.79 513.611 1056.96C516.72 1057.31 522.576 1057.97 528.839 1058.68L543.671 1084.69" fill="#D68D5D"/>
<path d="M552.104 1087.28C552.104 1087.28 505.011 1077.25 511.703 1048.03C518.395 1018.8 516.824 997.813 547.175 1002.97C577.526 1008.13 580.794 1020.63 580.932 1030.93C581.072 1041.23 564.527 1089.13 552.104 1087.28" fill="#E49963"/>
<path d="M511.247 1050.04C511.247 1050.04 526.661 1013.43 569.273 1023.31C598.46 1030.08 590.807 1000.47 589.088 995.573C589.088 995.573 566.416 991.32 542.968 987.573C493.753 979.72 508.617 1042.67 511.247 1050.04Z" fill="#2B478B"/>
<path d="M537.903 1191.93C526.28 1229.4 492.615 1252.25 462.708 1242.97C432.801 1233.71 417.979 1195.8 429.601 1158.33C441.224 1120.87 474.889 1098.01 504.797 1107.29C534.703 1116.56 549.525 1154.45 537.903 1191.93ZM536.085 1120.55L530.073 1110.51C519.993 1109.43 509.341 1104.37 500.885 1096.25C491.732 1087.47 489.212 1082.51 486.855 1083.28C455.277 1094.28 417.413 1147.61 400.343 1214.4C386.507 1269.08 365.633 1315.91 365.445 1331.47C365.284 1344.88 396.921 1371.55 417.685 1380.39C442.259 1391.03 483.272 1395.97 493.688 1391.37C498.872 1389.08 498.917 1377.77 505.412 1357.49C508.803 1346.88 512.696 1334.39 516.759 1320.89C517.235 1319.39 517.761 1317.73 518.1 1316.17L518.276 1315.64C522.959 1300.35 527.497 1284.11 531.853 1267.97C534.537 1258.03 537.095 1248.15 539.42 1238.63C545.408 1214.05 549.815 1191.91 550.743 1177.29C552.253 1153.45 544.229 1134.89 536.085 1120.55" fill="#F1A34F"/>
<path d="M518.1 1316.17L518.276 1315.64C521.616 1304.73 524.881 1293.33 528.063 1281.84L498.428 1239.95C487 1245.27 474.56 1246.65 462.708 1242.97C461.273 1242.53 459.884 1242 458.52 1241.43C462.977 1278.8 475.276 1324.63 507.305 1351.53C510.223 1342.31 513.431 1331.95 516.759 1320.89C517.235 1319.39 517.761 1317.73 518.1 1316.17Z" fill="#E58638"/>
<path d="M613.592 1315.95C613.592 1315.95 632.82 1321.72 645.319 1318.49C657.819 1315.28 678.828 1322.24 682.071 1326.88C685.312 1331.52 683.984 1333.25 677.814 1334.57C671.643 1335.88 649.632 1344.24 635.624 1338.32C621.616 1332.41 603.076 1331.47 603.076 1331.47L613.592 1315.95" fill="#E49963"/>
<path d="M515.189 1326.08C515.709 1324.37 516.232 1322.64 516.759 1320.89C517.235 1319.39 517.761 1317.73 518.1 1316.17L518.276 1315.64C519.641 1311.17 520.996 1306.63 522.337 1302.03C471.509 1276.35 425.511 1245.87 397.289 1225.95C395.181 1233.6 392.969 1241.08 390.733 1248.28C414.913 1265.01 464.813 1298.52 515.189 1326.08" fill="#B84C42"/>
<path d="M474.753 1302.76C487.861 1310.67 501.505 1318.6 515.189 1326.08C515.709 1324.37 516.232 1322.64 516.759 1320.89C517.235 1319.39 517.761 1317.73 518.1 1316.17L518.276 1315.64C519.641 1311.17 520.996 1306.63 522.337 1302.03C501.977 1291.73 482.397 1280.68 464.42 1269.84C466.939 1279.8 470.337 1291.35 474.753 1302.76" fill="#AA3E39"/>
<path d="M452.467 1140.44C452.467 1140.44 468.06 1296.44 503.641 1311.79C521.196 1319.36 600.696 1332.05 623.944 1334.56C623.944 1334.56 628.568 1337.81 627.933 1318.89C627.933 1318.89 546.543 1283.61 535.475 1266.65C519.004 1241.43 550.339 1166.87 529.36 1142.95C508.38 1119.01 471.885 1107.64 452.467 1140.44" fill="#E49963"/>
<path d="M536.764 1213.2C536.764 1213.2 477.164 1213.52 462.459 1229.39L446.432 1135.09L488.179 1109.53L530.592 1136.97C530.592 1136.97 546.644 1155.83 536.764 1213.2" fill="#80BDCC"/>
<path d="M961.444 1494.79L927.689 1486.08L874.333 1514.39L834.045 1586.25L850.379 1633.08L817.712 1679.91L816.624 1759.39L803.451 1778.95L1018.07 1778.99L1055.09 1714.75L1059.44 1613.48L1034.4 1508.95L989.755 1488.25L961.444 1494.79" fill="#699FF0"/>
<path d="M959.191 1488.2L951.162 1462.51C950.543 1460.53 948.667 1459.23 946.599 1459.33C939.391 1459.71 923.618 1460.67 923.618 1462.07C923.618 1463.88 959.191 1488.2 959.191 1488.2Z" fill="#4A75CB"/>
<path d="M963.547 1489.29L964.706 1471.61C964.858 1469.31 967.083 1467.72 969.308 1468.33L976.563 1470.32C981.934 1471.79 982.744 1479.07 977.83 1481.69L963.547 1489.29" fill="#4A75CB"/>
<path d="M952.632 1489.69C953.208 1488.64 953.782 1487.61 954.254 1486.76C954.946 1485.52 956.251 1484.75 957.674 1484.72L967.882 1484.6C969.148 1484.59 970.348 1485.17 971.108 1486.19L972.696 1488.31C973.344 1489.17 973.611 1490.25 973.44 1491.32L973.188 1492.87C972.864 1494.87 971.096 1496.29 969.079 1496.2L955.922 1495.57C952.988 1495.44 951.218 1492.27 952.632 1489.69Z" fill="#4A75CB"/>
<path d="M874.333 1514.39L895.647 1570.43C896.867 1573.63 901.351 1573.77 902.773 1570.65L911.45 1551.61C912.914 1548.41 912.009 1544.61 909.257 1542.4L874.333 1514.39Z" fill="#4A75CB"/>
<path d="M852.117 1635.33C852.117 1635.33 878.252 1667.15 873.169 1672.24C868.088 1677.32 820.985 1679.91 820.985 1679.91L852.117 1635.33Z" fill="#4A75CB"/>
<path d="M1055.09 1714.75C1055.09 1714.75 957.98 1747 963.304 1758.63C968.628 1770.24 1018.07 1778.99 1018.07 1778.99L1055.09 1714.75" fill="#4A75CB"/>
<path d="M939.679 1606.49L1043.33 1618.41C1046.73 1618.8 1047.29 1623.49 1044.09 1624.68L984.795 1646.65C980.887 1648.09 976.498 1647.24 973.416 1644.44L937.342 1611.65C935.207 1609.71 936.814 1606.17 939.679 1606.49" fill="#4A75CB"/>
<path d="M950.841 1499.81L926.459 1506.05C922.376 1507.09 920.507 1511.83 922.775 1515.37L925.661 1519.89C927.355 1522.55 931.129 1522.81 933.177 1520.43L950.841 1499.81Z" fill="#4A75CB"/>
<path d="M963.547 1499.09L987.926 1494.81C989.511 1494.53 991.143 1494.91 992.448 1495.85L1002.17 1502.87C1003.99 1504.19 1002.73 1507.05 1000.53 1506.6L963.547 1499.09Z" fill="#4A75CB"/>
<path d="M2136.6 1721.03C2136.6 1721.03 2149.31 1732.8 2146.83 1741.17C2144.35 1749.55 2132.88 1755.12 2131.33 1765.35C2129.77 1775.57 2123.57 1781.16 2118 1781.16C2112.43 1781.16 2091.4 1781.16 2091.4 1781.16C2091.4 1781.16 2087.29 1773.96 2097.21 1771.79C2107.13 1769.61 2110.87 1757.6 2110.25 1746.44C2109.63 1735.28 2111.19 1720.4 2111.19 1720.4L2132.25 1715.44L2136.6 1721.03" fill="#AA3E39"/>
<path d="M1980.69 1751.49C1980.69 1751.49 1982.97 1778.29 1977.4 1781.08H1905.93C1905.93 1781.08 1906 1772.56 1917.47 1770.71C1928.93 1768.84 1949.08 1762.03 1952.49 1746.84C1955.89 1731.65 1980.69 1751.49 1980.69 1751.49Z" fill="#AA3E39"/>
<path d="M1920.41 1372.85C1920.41 1372.85 1924.17 1419.84 1928.6 1476.32C1934.61 1553.04 1941.85 1647.28 1942.57 1665.13C1943.81 1696.13 1948.77 1745.72 1948.77 1745.72C1948.77 1745.72 1960.55 1757.51 1984.11 1752.53C1984.11 1752.53 2005.11 1681.75 2011.11 1606.84C2011.2 1605.61 2011.29 1604.39 2011.37 1603.15C2016.96 1526.89 2025.64 1366.35 2025.64 1366.35L1920.41 1372.85Z" fill="#EE9849"/>
<path d="M1920.41 1372.85C1920.41 1372.85 1924.17 1419.84 1928.6 1476.32L2011.11 1606.84C2011.2 1605.61 2011.29 1604.39 2011.37 1603.15C2016.96 1526.89 2025.64 1366.35 2025.64 1366.35L1920.41 1372.85" fill="#E58638"/>
<path d="M1937.61 1378.43C1937.61 1378.43 2005.49 1548.59 2050.12 1628.56C2094.76 1708.52 2108.71 1730.84 2108.71 1730.84C2108.71 1730.84 2134.28 1720.61 2136.6 1713.64C2136.6 1713.64 2119.53 1559.27 2089.64 1521.63C2072.75 1500.36 2052.91 1436.55 2051.99 1414.23C2051.05 1391.91 2045.93 1347.75 2045.93 1347.75L1937.61 1378.43" fill="#EE9849"/>
<path d="M2026.92 1116.2C2026.92 1116.2 1980.99 1138.71 1954.51 1130.35C1954.51 1130.35 1961.03 1122 1972.44 1115.79C1971.52 1110.39 1970.81 1105.71 1970.4 1101.73C1969.28 1092.57 1969.28 1087.37 1969.28 1087.37L1987 1073.23L2003.8 1059.68C2002.48 1097.76 2026.92 1116.2 2026.92 1116.2" fill="#FFB27D"/>
<path d="M2051.12 1356.45C2051.23 1359.31 2045.21 1362.57 2042.57 1363.79C2022.91 1372.55 2004.59 1378.65 1983.81 1380.69C1959.27 1383.24 1930.24 1377.64 1920.27 1377.84C1919.24 1377.84 1918.33 1377.44 1917.52 1376.72C1916.8 1376.21 1916.29 1346.17 1916.8 1308.4C1916.8 1306.87 1916.8 1305.33 1916.91 1303.81V1303.31C1917.11 1288.53 1917.61 1273.05 1918.33 1257.57C1919.76 1223.56 1922.4 1190.77 1926.88 1172.65C1932.28 1151.27 1944.51 1137.11 1955.6 1126.83L1964.76 1118.67C1973.93 1120.51 1983.6 1120 1993.28 1115.21C2003.87 1110.01 2015.49 1103.99 2017.33 1105.4C2031.17 1115.69 2040.33 1139.24 2045.32 1168.77C2048.17 1185.79 2049.6 1204.83 2049.49 1224.79C2049.49 1232.12 2049.29 1239.65 2048.88 1247.09C2046.44 1287.41 2048.88 1322.44 2050.31 1342.71C2050.72 1348.61 2051.03 1353.2 2051.12 1356.45" fill="#2B478B"/>
<path d="M2050.31 1342.71C1827.8 1342.4 2009.27 1176.83 2009.27 1176.83L2045.32 1168.77C2048.17 1185.79 2049.6 1204.83 2049.49 1224.79C2049.49 1232.12 2049.29 1239.65 2048.88 1247.09C2046.44 1287.41 2048.88 1322.44 2050.31 1342.71" fill="#233862"/>
<path d="M1951.32 1233.75L1950.61 1250.65L1949.89 1266.33L1947.65 1319.89L1916.09 1374.59C1916.09 1374.59 1892.47 1399.64 1831.67 1399.64C1755.89 1399.64 1744.69 1357.88 1744.69 1357.88L1745.61 1290.27L1773.41 1250.45L1759.56 1210.63L1793.79 1149.43L1839.2 1125.4L1867.92 1132.83L1892.05 1127.23L1930.04 1144.84L1951.32 1233.75Z" fill="#699FF0"/>
<path d="M1866.01 1127.19L1859.19 1105.33C1858.67 1103.65 1857.07 1102.53 1855.31 1102.63C1849.17 1102.93 1835.75 1103.76 1835.75 1104.95C1835.75 1106.49 1866.01 1127.19 1866.01 1127.19" fill="#4A75CB"/>
<path d="M1869.72 1128.12L1870.71 1113.07C1870.84 1111.11 1872.73 1109.76 1874.63 1110.28L1880.8 1111.97C1885.37 1113.23 1886.05 1119.41 1881.88 1121.64L1869.72 1128.12" fill="#4A75CB"/>
<path d="M1860.44 1128.45C1860.93 1127.56 1861.41 1126.68 1861.81 1125.96C1862.41 1124.91 1863.52 1124.24 1864.72 1124.23L1873.41 1124.12C1874.49 1124.11 1875.51 1124.61 1876.16 1125.48L1877.51 1127.28C1878.05 1128.01 1878.29 1128.93 1878.13 1129.84L1877.93 1131.16C1877.65 1132.85 1876.15 1134.08 1874.43 1134L1863.24 1133.47C1860.73 1133.35 1859.23 1130.65 1860.44 1128.45" fill="#4A75CB"/>
<path d="M1793.81 1149.47L1811.95 1197.15C1812.99 1199.87 1816.8 1200 1818.01 1197.33L1825.4 1181.15C1826.64 1178.41 1825.88 1175.19 1823.53 1173.31L1793.81 1149.47Z" fill="#4A75CB"/>
<path d="M1773.41 1250.45C1773.41 1250.45 1794.29 1279.44 1789.96 1283.77C1785.64 1288.09 1745.56 1290.29 1745.56 1290.29L1773.41 1250.45" fill="#4A75CB"/>
<path d="M1947.61 1319.93C1947.61 1319.93 1864.99 1347.39 1869.52 1357.27C1874.05 1367.15 1916.11 1374.6 1916.11 1374.6L1947.61 1319.93Z" fill="#4A75CB"/>
<path d="M1950.61 1250.65L1949.89 1266.33L1873.11 1273.77C1870.16 1274.08 1868.73 1270.11 1871.28 1268.48L1918.73 1238.33C1921.89 1236.4 1925.87 1236.29 1929.03 1238.13L1950.61 1250.65Z" fill="#4A75CB"/>
<path d="M1858.92 1137.07L1838.17 1142.37C1834.69 1143.27 1833.11 1147.28 1835.04 1150.31L1837.49 1154.16C1838.93 1156.41 1842.15 1156.64 1843.88 1154.6L1858.92 1137.07" fill="#4A75CB"/>
<path d="M1869.72 1136.45L1890.47 1132.81C1891.81 1132.57 1893.2 1132.89 1894.32 1133.69L1902.59 1139.67C1904.13 1140.79 1903.07 1143.23 1901.19 1142.84L1869.72 1136.45" fill="#4A75CB"/>
<path d="M1894.15 1274.49L1885.91 1271.85C1885.91 1271.85 1880.13 1252.79 1860.65 1261.32C1860.65 1261.32 1852.75 1265.52 1856.23 1270.48C1859.71 1275.44 1859.08 1272.83 1863.84 1279.97C1868.6 1287.12 1876.13 1290.52 1882.15 1287.81L1888.99 1288.01L1894.15 1274.49Z" fill="#AB7041"/>
<path d="M2026.93 1116.15C2026.93 1116.15 2077.32 1196.28 2023.64 1288.89C2006.89 1317.8 1880.33 1290.32 1880.33 1290.32C1880.33 1290.32 1875.4 1281.41 1888.6 1272.03C1888.6 1272.03 1972.87 1257.76 1982.91 1255.37C1991.83 1253.25 1985.88 1171.36 1996.07 1147.6C2006.25 1123.84 2026.93 1116.15 2026.93 1116.15" fill="#2B478B"/>
<path d="M2004.11 1074.24C2004.11 1074.24 1992.49 1095.72 1970.4 1101.73C1969.28 1092.57 1969.28 1087.37 1969.28 1087.37L1987 1073.23L2004.11 1074.24Z" fill="#ED985F"/>
<path d="M1961.2 1086.76C1961.2 1086.76 2005.01 1094.04 2009.13 1066.68C2013.24 1039.32 2021.67 1021.84 1993.87 1016.04C1966.07 1010.23 1959.05 1019.85 1955.45 1028.65C1951.87 1037.44 1949.91 1084.16 1961.2 1086.76Z" fill="#FFB27D"/>
<path d="M2025.05 1012.76C2025.45 1012.29 2026.36 1011.92 2028.41 1011.81C2028.41 1011.81 2026.77 1010.77 2024.6 1010.72C2024.17 1007.84 2022.65 1002.73 2017.77 1001.49C2017.77 1001.49 2020.4 1002.92 2020.73 1005.99C2015.08 1000.08 2002.96 995.787 1969.37 998.48C1925.12 1002.03 1939.71 1030.8 1945.44 1034.23C1951.17 1037.65 1965.59 1028.25 1976.27 1029.11C1986.93 1029.97 1988.96 1045.64 1992.59 1047.79C1996.21 1049.93 1994.79 1046.13 1999.68 1043.89C2004.59 1041.64 2005.05 1049.88 2003.63 1055.24C2002.21 1060.6 2008.95 1067.68 2008.95 1067.68C2008.95 1067.68 2008.95 1067.68 2015.75 1060.24C2022.56 1052.8 2028.96 1021.28 2025.87 1014.56C2025.6 1013.97 2025.33 1013.37 2025.05 1012.76" fill="#2B478B"/>
<path d="M3434.36 1784.67H2.48548C0.969482 1784.67 -0.270508 1783.43 -0.270508 1781.91V1781.69C-0.270508 1780.19 0.969482 1778.95 2.48548 1778.95H3434.36C3435.87 1778.95 3437.11 1780.19 3437.11 1781.69V1781.91C3437.11 1783.43 3435.87 1784.67 3434.36 1784.67" fill="#283250"/>
</g>
<defs>
<clipPath id="clip0_228_2691">
<rect width="3483" height="1785" fill="white"/>
</clipPath>
</defs>
</svg>
