<svg width="1821" height="529" viewBox="0 0 1821 529" fill="none" xmlns="http://www.w3.org/2000/svg">
<path fill-rule="evenodd" clip-rule="evenodd" d="M260.714 319.953C323.76 319.953 374.943 268.87 374.943 206.687C374.943 191.141 371.979 177.073 366.786 163.745C349.724 122.286 308.927 93.4166 261.453 93.4166C197.667 92.677 146.484 143.755 146.484 205.943C146.484 254.807 177.635 296.266 220.656 312.552C233.271 316.995 246.62 319.953 260.714 319.953ZM344.531 205.943C344.531 251.844 306.703 289.599 260.714 289.599C214.724 289.599 176.896 251.844 176.896 205.943C176.896 160.047 214.724 122.286 260.714 122.286C306.703 122.286 344.531 160.047 344.531 205.943Z" fill="#76A8FA"/>
<path fill-rule="evenodd" clip-rule="evenodd" d="M260.713 289.599C307.443 289.599 344.531 251.844 344.531 205.943C344.531 160.047 306.703 122.287 260.713 122.287C214.724 122.287 176.896 160.047 176.896 205.943C176.896 251.844 213.984 289.599 260.713 289.599Z" fill="#F0F0F0"/>
<path fill-rule="evenodd" clip-rule="evenodd" d="M249.589 123.026C291.125 128.208 322.281 163.745 322.281 205.943C322.281 248.141 290.385 283.677 249.589 288.86C253.297 289.599 257.005 289.599 260.714 289.599C307.443 289.599 344.531 251.844 344.531 205.943C344.531 160.047 306.703 122.287 260.714 122.287C257.005 122.287 253.297 123.026 249.589 123.026Z" fill="#DBDBDB"/>
<path fill-rule="evenodd" clip-rule="evenodd" d="M242.172 94.1564C277.031 100.078 307.443 121.547 323.76 151.162C336.375 165.969 344.531 185.214 344.531 205.943C344.531 226.672 337.115 245.922 323.76 260.729C307.443 290.344 277.031 312.552 242.172 317.735C248.104 318.474 254.036 319.214 259.974 319.214C323.021 319.214 374.203 268.13 374.203 205.943C374.203 190.396 371.234 176.333 366.042 163.005C348.984 121.547 308.188 92.6772 260.714 92.6772C254.036 92.6772 248.104 93.4168 242.172 94.1564Z" fill="#5694F7"/>
<path fill-rule="evenodd" clip-rule="evenodd" d="M397.198 272.573L265.167 259.99L132.391 272.573L145 456.912C145.74 473.943 158.349 486.526 173.927 486.526H356.401C371.234 486.526 383.844 473.943 384.589 456.912L397.198 272.573Z" fill="#6E6565"/>
<path fill-rule="evenodd" clip-rule="evenodd" d="M213.24 429.521L206.568 327.36C205.823 319.953 199.891 314.771 192.474 314.771C185.052 315.511 179.12 321.438 179.865 328.839L186.536 431.005C187.281 438.406 192.474 443.589 199.891 443.589H200.63C208.047 442.849 213.984 436.927 213.24 429.521Z" fill="#DBDBDB"/>
<path fill-rule="evenodd" clip-rule="evenodd" d="M251.812 328.838V430.26C251.812 437.667 257.745 443.588 265.167 443.588C272.583 443.588 278.516 437.667 278.516 431.005V328.838C278.516 321.437 272.583 315.51 265.167 315.51C257.745 315.51 251.812 321.437 251.812 328.838Z" fill="#DBDBDB"/>
<path fill-rule="evenodd" clip-rule="evenodd" d="M323.76 327.36L317.089 429.521C317.089 436.927 322.281 442.849 329.698 443.589H330.438C337.854 443.589 343.047 438.406 343.792 431.005L350.469 328.839C350.469 321.438 345.276 315.511 337.854 314.771C330.438 314.771 324.505 319.953 323.76 327.36Z" fill="#DBDBDB"/>
<path fill-rule="evenodd" clip-rule="evenodd" d="M371.979 272.573L359.37 456.911C358.625 473.943 346.016 486.526 331.182 486.526H356.401C371.234 486.526 383.844 473.943 384.589 456.911L397.198 272.573H371.979Z" fill="#5C5757"/>
<path fill-rule="evenodd" clip-rule="evenodd" d="M404.615 272.573C415 272.573 423.901 264.432 423.901 254.068C423.901 243.703 415 235.557 404.615 235.557H125.713C115.328 235.557 106.427 243.703 106.427 254.068C106.427 264.432 115.328 272.573 125.713 272.573H404.615Z" fill="#A0E897"/>
<path fill-rule="evenodd" clip-rule="evenodd" d="M377.911 254.068C377.911 260.729 374.203 266.651 368.271 269.614C365.302 271.094 361.594 272.573 357.885 272.573H403.875C414.255 272.573 423.156 264.432 423.156 254.068C423.156 243.703 414.255 235.557 403.875 235.557H357.141C361.594 235.557 365.302 237.036 368.271 239.26C374.203 242.219 377.911 247.401 377.911 254.068Z" fill="#86DB7B"/>
<path d="M285.193 200.76H265.906V167.448C265.906 163.005 262.938 160.047 258.49 160.047C254.037 160.047 251.073 163.005 251.073 167.448V208.167C251.073 212.609 254.037 215.568 258.49 215.568H285.193C289.641 215.568 292.609 212.609 292.609 208.167C292.609 203.724 288.901 200.76 285.193 200.76Z" fill="black"/>
<path d="M259.974 68.9842C264.422 68.9842 267.391 66.0259 267.391 61.5832V42.3332C267.391 37.8905 264.422 34.9321 259.974 34.9321C255.521 34.9321 252.552 37.8905 252.552 42.3332V61.5832C252.552 65.2811 256.26 68.9842 259.974 68.9842Z" fill="black"/>
<path d="M197.667 80.8281C202.115 80.8281 205.083 77.8698 205.083 73.4271V54.9167C205.083 50.4792 202.115 47.5156 197.667 47.5156C193.214 47.5156 190.245 50.4792 190.245 54.9167V74.1667C190.245 77.8698 193.953 80.8281 197.667 80.8281Z" fill="black"/>
<path d="M148.708 117.104C153.156 117.104 156.125 114.146 156.125 109.703V90.4533C156.125 86.0106 153.156 83.0522 148.708 83.0522C144.255 83.0522 141.292 86.0106 141.292 90.4533V109.703C141.292 113.406 145 117.104 148.708 117.104Z" fill="black"/>
<path d="M322.281 80.8281C326.729 80.8281 329.698 77.8698 329.698 73.4271V54.9167C329.698 50.4792 326.729 47.5156 322.281 47.5156C317.828 47.5156 314.859 50.4792 314.859 54.9167V74.1667C314.859 77.8698 317.828 80.8281 322.281 80.8281Z" fill="black"/>
<path d="M371.234 117.104C375.687 117.104 378.651 114.146 378.651 109.703V90.4533C378.651 86.0106 375.687 83.0522 371.234 83.0522C366.786 83.0522 363.818 86.0106 363.818 90.4533V109.703C363.818 113.406 367.526 117.104 371.234 117.104Z" fill="black"/>
<path d="M642.35 417L545.254 120.2H616.486L700.862 383.08H665.246L753.438 120.2H817.038L901.838 383.08H867.494L953.99 120.2H1019.71L922.614 417H848.838L773.79 186.344H793.294L716.126 417H642.35Z" fill="black"/>
<path d="M1065.22 417V120.2H1122.03L1248.38 329.656H1218.28L1342.51 120.2H1398.9L1399.75 417H1335.3L1334.88 218.992H1346.75L1247.54 385.624H1216.58L1115.25 218.992H1129.66V417H1065.22Z" fill="black"/>
<path d="M1574.02 422.088C1550.28 422.088 1527.52 418.979 1505.76 412.76C1483.99 406.259 1466.47 397.92 1453.18 387.744L1476.5 336.016C1489.22 345.061 1504.2 352.552 1521.44 358.488C1538.97 364.141 1556.64 366.968 1574.44 366.968C1588.01 366.968 1598.9 365.696 1607.09 363.152C1615.57 360.325 1621.79 356.509 1625.75 351.704C1629.71 346.899 1631.68 341.387 1631.68 335.168C1631.68 327.253 1628.58 321.035 1622.36 316.512C1616.14 311.707 1607.94 307.891 1597.76 305.064C1587.59 301.955 1576.28 299.128 1563.84 296.584C1551.69 293.757 1539.39 290.365 1526.96 286.408C1514.8 282.451 1503.64 277.363 1493.46 271.144C1483.28 264.925 1474.95 256.728 1468.44 246.552C1462.23 236.376 1459.12 223.373 1459.12 207.544C1459.12 190.584 1463.64 175.179 1472.68 161.328C1482.01 147.195 1495.86 136.029 1514.24 127.832C1532.89 119.352 1556.21 115.112 1584.2 115.112C1602.85 115.112 1621.23 117.373 1639.32 121.896C1657.41 126.136 1673.38 132.637 1687.23 141.4L1666.03 193.552C1652.18 185.637 1638.33 179.843 1624.48 176.168C1610.63 172.211 1597.06 170.232 1583.77 170.232C1570.49 170.232 1559.6 171.787 1551.12 174.896C1542.64 178.005 1536.57 182.104 1532.89 187.192C1529.22 191.997 1527.38 197.651 1527.38 204.152C1527.38 211.784 1530.49 218.003 1536.71 222.808C1542.93 227.331 1551.12 231.005 1561.3 233.832C1571.48 236.659 1582.64 239.485 1594.8 242.312C1607.23 245.139 1619.53 248.389 1631.68 252.064C1644.12 255.739 1655.43 260.685 1665.6 266.904C1675.78 273.123 1683.98 281.32 1690.2 291.496C1696.7 301.672 1699.95 314.533 1699.95 330.08C1699.95 346.757 1695.28 362.021 1685.96 375.872C1676.63 389.723 1662.64 400.888 1643.98 409.368C1625.61 417.848 1602.29 422.088 1574.02 422.088Z" fill="black"/>
</svg>
