<svg width="1821" height="529" viewBox="0 0 1821 529" fill="none" xmlns="http://www.w3.org/2000/svg">
<path fill-rule="evenodd" clip-rule="evenodd" d="M260.714 319.953C323.76 319.953 374.943 268.87 374.943 206.687C374.943 191.141 371.979 177.073 366.786 163.745C349.724 122.286 308.927 93.4166 261.453 93.4166C197.667 92.677 146.484 143.755 146.484 205.943C146.484 254.807 177.635 296.266 220.656 312.552C233.271 316.995 246.62 319.953 260.714 319.953ZM344.531 205.943C344.531 251.844 306.703 289.599 260.714 289.599C214.724 289.599 176.896 251.844 176.896 205.943C176.896 160.047 214.724 122.286 260.714 122.286C306.703 122.286 344.531 160.047 344.531 205.943Z" fill="#76A8FA"/>
<path fill-rule="evenodd" clip-rule="evenodd" d="M260.713 289.599C307.443 289.599 344.531 251.844 344.531 205.943C344.531 160.047 306.703 122.286 260.713 122.286C214.724 122.286 176.896 160.047 176.896 205.943C176.896 251.844 213.984 289.599 260.713 289.599Z" fill="#F0F0F0"/>
<path fill-rule="evenodd" clip-rule="evenodd" d="M249.589 123.026C291.125 128.208 322.281 163.745 322.281 205.943C322.281 248.141 290.385 283.677 249.589 288.859C253.297 289.599 257.005 289.599 260.714 289.599C307.443 289.599 344.531 251.844 344.531 205.943C344.531 160.047 306.703 122.286 260.714 122.286C257.005 122.286 253.297 123.026 249.589 123.026Z" fill="#DBDBDB"/>
<path fill-rule="evenodd" clip-rule="evenodd" d="M242.172 94.1562C277.031 100.078 307.443 121.547 323.76 151.161C336.375 165.969 344.531 185.213 344.531 205.943C344.531 226.672 337.115 245.922 323.76 260.729C307.443 290.344 277.031 312.552 242.172 317.734C248.104 318.474 254.036 319.213 259.974 319.213C323.021 319.213 374.203 268.13 374.203 205.943C374.203 190.396 371.234 176.333 366.042 163.005C348.984 121.547 308.188 92.677 260.714 92.677C254.036 92.677 248.104 93.4166 242.172 94.1562Z" fill="#5694F7"/>
<path fill-rule="evenodd" clip-rule="evenodd" d="M397.198 272.573L265.167 259.99L132.391 272.573L145 456.911C145.74 473.943 158.349 486.526 173.927 486.526H356.401C371.234 486.526 383.844 473.943 384.589 456.911L397.198 272.573Z" fill="#6E6565"/>
<path fill-rule="evenodd" clip-rule="evenodd" d="M213.24 429.521L206.568 327.359C205.823 319.953 199.891 314.771 192.474 314.771C185.052 315.51 179.12 321.437 179.865 328.838L186.536 431.005C187.281 438.406 192.474 443.588 199.891 443.588H200.63C208.047 442.849 213.984 436.927 213.24 429.521Z" fill="#DBDBDB"/>
<path fill-rule="evenodd" clip-rule="evenodd" d="M251.812 328.839V430.261C251.812 437.667 257.745 443.589 265.167 443.589C272.583 443.589 278.516 437.667 278.516 431.005V328.839C278.516 321.438 272.583 315.51 265.167 315.51C257.745 315.51 251.812 321.438 251.812 328.839Z" fill="#DBDBDB"/>
<path fill-rule="evenodd" clip-rule="evenodd" d="M323.76 327.359L317.089 429.521C317.089 436.927 322.281 442.849 329.698 443.588H330.438C337.854 443.588 343.047 438.406 343.792 431.005L350.469 328.838C350.469 321.437 345.276 315.51 337.854 314.771C330.438 314.771 324.505 319.953 323.76 327.359Z" fill="#DBDBDB"/>
<path fill-rule="evenodd" clip-rule="evenodd" d="M371.979 272.573L359.37 456.912C358.625 473.943 346.016 486.526 331.182 486.526H356.401C371.234 486.526 383.844 473.943 384.589 456.912L397.198 272.573H371.979Z" fill="#5C5757"/>
<path fill-rule="evenodd" clip-rule="evenodd" d="M404.615 272.573C415 272.573 423.901 264.432 423.901 254.068C423.901 243.703 415 235.557 404.615 235.557H125.713C115.328 235.557 106.427 243.703 106.427 254.068C106.427 264.432 115.328 272.573 125.713 272.573H404.615Z" fill="#A0E897"/>
<path fill-rule="evenodd" clip-rule="evenodd" d="M377.911 254.068C377.911 260.729 374.203 266.651 368.271 269.615C365.302 271.094 361.594 272.573 357.885 272.573H403.875C414.255 272.573 423.156 264.432 423.156 254.068C423.156 243.703 414.255 235.557 403.875 235.557H357.141C361.594 235.557 365.302 237.037 368.271 239.26C374.203 242.219 377.911 247.401 377.911 254.068Z" fill="#86DB7B"/>
<path d="M285.193 200.76H265.906V167.448C265.906 163.005 262.938 160.047 258.49 160.047C254.037 160.047 251.073 163.005 251.073 167.448V208.167C251.073 212.609 254.037 215.568 258.49 215.568H285.193C289.641 215.568 292.609 212.609 292.609 208.167C292.609 203.724 288.901 200.76 285.193 200.76Z" fill="black"/>
<path d="M404.615 228.156H379.396C380.88 220.75 381.62 214.089 381.62 206.688C381.62 140.057 327.474 86.0105 259.974 86.0105C193.213 86.0105 138.323 140.057 138.323 206.688C138.323 214.089 139.068 221.49 140.547 228.156H124.974C110.135 228.156 98.2708 240 98.2708 254.068C98.2708 268.13 110.135 279.979 124.974 279.979L137.583 456.912C138.323 477.641 154.641 493.932 173.927 493.932H356.401C375.687 493.932 391.26 477.641 392.005 456.912L403.875 279.979H404.615C419.448 279.979 431.318 268.13 431.318 254.068C431.318 239.261 419.448 228.156 404.615 228.156ZM153.901 205.943C153.901 147.458 201.375 100.078 260.713 100.078C319.312 100.078 367.526 147.458 367.526 205.943C367.526 213.349 366.786 220.75 365.302 227.412H349.724C351.208 220.75 352.693 213.349 352.693 205.943C352.693 155.604 311.896 114.885 261.453 114.885C211.016 114.885 170.219 155.604 170.219 205.943C170.219 213.349 170.963 220.75 173.187 227.412H157.609C154.641 220.75 153.901 213.349 153.901 205.943ZM187.281 228.156C185.797 223.714 185.052 218.531 184.312 214.089H188.766C193.213 214.089 196.182 211.125 196.182 206.688C196.182 202.245 193.213 199.281 188.766 199.281H184.312C188.021 163.005 216.948 134.135 253.297 131.172V135.615C253.297 140.057 256.266 143.016 260.713 143.016C265.167 143.016 268.13 140.057 268.13 135.615V131.172C304.479 134.875 333.406 163.745 337.115 199.281H331.922C327.474 199.281 324.505 202.245 324.505 206.688C324.505 211.125 327.474 214.089 331.922 214.089H336.375C335.63 219.271 334.891 223.714 333.406 228.156H187.281ZM377.172 456.172C376.427 468.761 367.526 479.125 356.401 479.125H173.927C162.057 479.125 152.417 469.5 152.417 456.172L140.547 279.979H389.036L377.172 456.172ZM404.615 265.172H125.713C119.036 265.172 113.844 259.99 113.844 254.068C113.844 248.141 119.036 242.958 125.713 242.958H405.354C412.031 242.958 417.224 248.141 417.224 254.068C416.484 259.99 411.292 265.172 404.615 265.172Z" fill="black"/>
<path d="M329.698 450.99C341.562 450.99 350.469 442.849 351.208 431.745L357.885 328.839C357.885 317.734 349.724 308.109 337.854 307.37C326.729 307.37 317.089 315.51 316.344 326.62L309.672 429.521C309.672 440.625 317.828 450.25 329.698 450.99ZM331.182 328.099C331.182 324.396 334.146 322.177 337.115 322.177C340.823 322.177 343.047 325.135 343.047 328.099L336.375 430.261C336.375 433.224 334.146 436.188 330.438 436.188V443.589V436.188C326.729 436.188 324.505 433.224 324.505 430.261L331.182 328.099Z" fill="black"/>
<path d="M199.891 450.99H201.375C207.307 450.25 212.5 447.292 216.208 443.589C219.917 439.885 221.401 434.703 220.656 429.521L213.984 327.359C213.239 316.255 203.599 308.109 191.729 308.109C179.864 308.849 170.963 319.214 172.443 330.318L179.12 432.484C179.864 442.849 188.766 450.99 199.891 450.99ZM192.474 322.177C196.182 322.177 199.146 324.396 199.146 328.099L205.823 430.26C205.823 431.745 205.823 432.484 204.338 433.964C202.854 435.443 201.375 436.188 199.891 436.188H199.146C195.437 436.188 193.213 433.224 193.213 430.26L186.536 328.099C186.536 324.396 190.245 322.177 192.474 322.177Z" fill="black"/>
<path d="M265.167 450.99C276.292 450.99 285.932 442.109 285.932 431.005V328.839C285.932 317.734 276.292 308.109 265.167 308.109C259.229 308.109 254.036 310.328 250.328 314.771C246.62 318.474 244.396 323.656 244.396 328.839V430.26C244.396 441.37 253.297 450.99 265.167 450.99ZM271.099 328.839V431.005C271.099 433.224 268.13 436.188 265.167 436.188C262.198 436.188 259.229 433.224 259.229 430.26V328.839C259.229 327.359 259.974 325.875 260.713 325.135C261.453 324.396 262.937 323.656 265.167 323.656C268.13 322.917 271.099 325.135 271.099 328.839Z" fill="black"/>
<path d="M259.974 68.9845C264.422 68.9845 267.391 66.0261 267.391 61.5834V42.3334C267.391 37.8907 264.422 34.9324 259.974 34.9324C255.521 34.9324 252.552 37.8907 252.552 42.3334V61.5834C252.552 65.2813 256.26 68.9845 259.974 68.9845Z" fill="black"/>
<path d="M197.667 80.8281C202.115 80.8281 205.083 77.8698 205.083 73.4271V54.9167C205.083 50.4792 202.115 47.5156 197.667 47.5156C193.214 47.5156 190.245 50.4792 190.245 54.9167V74.1667C190.245 77.8698 193.953 80.8281 197.667 80.8281Z" fill="black"/>
<path d="M148.708 117.104C153.156 117.104 156.125 114.146 156.125 109.703V90.453C156.125 86.0103 153.156 83.052 148.708 83.052C144.255 83.052 141.292 86.0103 141.292 90.453V109.703C141.292 113.406 145 117.104 148.708 117.104Z" fill="black"/>
<path d="M322.281 80.8281C326.729 80.8281 329.698 77.8698 329.698 73.4271V54.9167C329.698 50.4792 326.729 47.5156 322.281 47.5156C317.828 47.5156 314.859 50.4792 314.859 54.9167V74.1667C314.859 77.8698 317.828 80.8281 322.281 80.8281Z" fill="black"/>
<path d="M371.234 117.104C375.687 117.104 378.651 114.146 378.651 109.703V90.453C378.651 86.0103 375.687 83.052 371.234 83.052C366.786 83.052 363.818 86.0103 363.818 90.453V109.703C363.818 113.406 367.526 117.104 371.234 117.104Z" fill="black"/>
<path d="M774.161 328.688C777.836 340.843 781.511 353.139 785.185 365.576C789.143 378.013 793.807 389.603 799.177 400.344C804.831 410.803 811.756 419.848 819.953 427.48C828.433 435.395 839.033 440.624 851.753 443.168C839.599 442.32 829.14 438.363 820.377 431.296C811.897 424.229 804.689 415.608 798.753 405.432C792.817 394.973 788.012 383.808 784.337 371.936C780.663 360.064 777.977 349.181 776.281 339.288C775.433 346.072 774.02 353.563 772.041 361.76C770.345 369.957 768.084 378.155 765.257 386.352C762.431 394.267 759.039 401.899 755.081 409.248C751.407 416.315 747.025 422.392 741.937 427.48L705.897 433.84C693.743 427.056 683.001 417.445 673.673 405.008C664.628 392.288 656.572 378.013 649.505 362.184C642.721 346.072 636.927 328.971 632.121 310.88C627.599 292.507 623.783 274.416 620.673 256.608C617.564 238.8 615.161 221.699 613.465 205.304C612.052 188.627 611.204 174.069 610.921 161.632L621.521 160.36C622.935 161.208 624.065 163.328 624.913 166.72C626.044 169.829 626.892 173.363 627.457 177.32C628.023 181.277 628.447 185.093 628.729 188.768C629.012 192.443 629.153 194.987 629.153 196.4L632.969 195.128C632.969 192.867 633.111 188.768 633.393 182.832C633.676 176.613 634.383 170.395 635.513 164.176C636.644 157.675 638.199 152.021 640.177 147.216C642.439 142.411 645.265 140.008 648.657 140.008C650.353 140.008 652.049 144.389 653.745 153.152C655.724 161.915 657.985 173.363 660.529 187.496C663.073 201.347 665.9 217.176 669.009 234.984C672.119 252.509 675.793 270.176 680.033 287.984C684.556 305.509 689.644 322.469 695.297 338.864C700.951 354.976 707.452 368.544 714.801 379.568C717.345 367.131 720.596 353.704 724.553 339.288C728.793 324.589 732.892 311.021 736.849 298.584C740.807 285.864 744.199 275.264 747.025 266.784C750.135 258.304 751.972 253.923 752.537 253.64L797.905 252.368C801.58 254.912 804.972 259.576 808.081 266.36C811.191 272.861 814.159 280.493 816.985 289.256C819.812 298.019 822.497 307.488 825.041 317.664C827.585 327.557 830.271 337.309 833.097 346.92C835.924 356.248 838.892 365.011 842.001 373.208C845.111 381.123 848.503 387.483 852.177 392.288L855.993 392.712C860.233 392.712 864.473 390.027 868.713 384.656C873.236 379.285 877.617 372.501 881.857 364.304C886.38 355.824 890.62 346.637 894.577 336.744C898.535 326.568 902.068 316.816 905.177 307.488C908.569 297.877 911.396 289.256 913.657 281.624C915.919 273.709 917.615 267.915 918.745 264.24C919.876 260 921.007 254.205 922.137 246.856C923.551 239.224 924.964 231.027 926.377 222.264C927.791 213.501 929.204 204.739 930.617 195.976C932.313 186.931 934.009 178.875 935.705 171.808C937.401 164.459 939.239 158.523 941.217 154C943.196 149.195 945.316 146.792 947.577 146.792L949.697 147.216C941.217 201.771 929.063 255.477 913.233 308.336C921.996 282.331 929.204 256.043 934.857 229.472C940.793 202.901 946.588 176.331 952.241 149.76L955.633 153.152C955.916 151.173 956.764 147.64 958.177 142.552C959.591 137.181 961.145 131.811 962.841 126.44C964.82 120.787 966.94 115.84 969.201 111.6C971.463 107.36 973.724 105.24 975.985 105.24C977.681 105.24 979.095 106.653 980.225 109.48C981.639 112.307 982.628 115.557 983.193 119.232C983.759 122.907 984.183 126.581 984.465 130.256C984.748 133.648 984.889 135.909 984.889 137.04C984.889 137.888 984.465 139.725 983.617 142.552C982.769 145.379 982.204 147.357 981.921 148.488C979.66 158.099 976.833 171.384 973.441 188.344C970.332 205.304 966.516 223.96 961.993 244.312C957.471 264.381 952.1 284.875 945.881 305.792C940.228 325.861 933.727 344.376 926.377 361.336C934.009 344.376 940.935 326.003 947.153 306.216C953.655 285.299 959.308 264.947 964.113 245.16C969.201 225.091 973.583 206.576 977.257 189.616C980.932 172.656 983.9 159.371 986.161 149.76C986.161 164.176 985.031 179.157 982.769 194.704C980.508 209.968 977.54 225.373 973.865 240.92C970.191 256.467 966.092 271.872 961.569 287.136C957.047 302.4 952.665 316.816 948.425 330.384L942.065 332.928C939.521 341.973 935.988 352.715 931.465 365.152C926.943 377.589 921.148 389.461 914.081 400.768C907.297 411.792 899.241 421.12 889.913 428.752C880.868 436.667 870.551 440.624 858.961 440.624C850.199 440.624 842.284 438.645 835.217 434.688C828.433 431.013 822.215 425.925 816.561 419.424C811.191 413.205 806.385 405.997 802.145 397.8C798.188 389.603 794.513 381.123 791.121 372.36C788.012 363.597 785.185 354.835 782.641 346.072C780.097 337.027 777.836 328.829 775.857 321.48C775.292 323.459 774.727 325.861 774.161 328.688ZM855.993 433.416C864.756 433.416 872.953 430.589 880.585 424.936C888.5 419.565 895.849 412.216 902.633 402.888C895.284 410.237 887.935 416.597 880.585 421.968C873.236 427.339 865.039 430.024 855.993 430.024C848.644 430.024 841.86 427.904 835.641 423.664C829.705 419.707 824.193 414.477 819.105 407.976C814.3 401.192 809.919 393.701 805.961 385.504C802.287 377.024 798.895 368.685 795.785 360.488C792.676 352.291 789.991 344.517 787.729 337.168C785.468 329.536 783.489 323.176 781.793 318.088C782.924 324.872 784.479 332.504 786.457 340.984C788.719 349.181 791.263 357.52 794.089 366C796.916 374.48 800.167 382.819 803.841 391.016C807.799 398.931 812.321 406.139 817.409 412.64C822.497 418.859 828.151 423.805 834.369 427.48C840.871 431.437 848.079 433.416 855.993 433.416ZM860.657 442.744C870.268 441.048 879.031 437.373 886.945 431.72C894.86 426.349 901.927 419.848 908.145 412.216C914.647 404.584 920.159 396.245 924.681 387.2C927.225 382.395 929.628 377.589 931.889 372.784C929.911 377.872 927.649 383.101 925.105 388.472C920.583 398.083 915.212 406.987 908.993 415.184C902.775 423.099 895.567 429.6 887.369 434.688C879.455 440.059 870.551 442.744 860.657 442.744ZM851.753 400.768C848.361 399.92 844.969 397.235 841.577 392.712C838.468 388.189 836.065 383.525 834.369 378.72C835.217 381.264 836.207 383.949 837.337 386.776C838.751 389.603 840.305 392.288 842.001 394.832C843.98 397.376 846.1 399.496 848.361 401.192C850.623 402.605 853.167 403.312 855.993 403.312C860.516 403.312 864.897 401.333 869.137 397.376C873.66 393.136 877.759 388.048 881.433 382.112C885.391 376.176 888.924 369.957 892.033 363.456C895.143 356.672 897.828 350.595 900.089 345.224C897.828 350.312 895.001 356.248 891.609 363.032C888.5 369.533 884.967 375.611 881.009 381.264C877.335 386.917 873.236 391.723 868.713 395.68C864.473 399.637 860.233 401.616 855.993 401.616C854.863 401.616 853.449 401.333 851.753 400.768ZM773.313 348.192C773.596 346.213 773.879 344.376 774.161 342.68C774.444 340.701 774.868 338.723 775.433 336.744L773.737 331.656C773.172 334.483 772.607 337.309 772.041 340.136C771.759 342.68 771.335 345.365 770.769 348.192H773.313ZM933.585 368.544C933.02 369.957 932.455 371.371 931.889 372.784C932.455 371.088 933.02 369.675 933.585 368.544ZM935.281 364.728C934.716 366.141 934.151 367.413 933.585 368.544C934.151 367.131 934.716 365.859 935.281 364.728ZM936.553 361.76C935.988 362.608 935.564 363.597 935.281 364.728C935.564 363.597 935.988 362.608 936.553 361.76Z" fill="#212B36"/>
<path d="M1150.49 261.272L1149.64 260C1149.64 256.608 1148.93 252.933 1147.52 248.976C1146.39 245.019 1144.98 241.061 1143.28 237.104C1141.58 233.147 1139.6 229.331 1137.34 225.656C1135.36 221.699 1133.53 218.024 1131.83 214.632L1128.86 212.936C1132.54 221.699 1136.35 229.613 1140.31 236.68C1144.27 243.747 1146.25 251.237 1146.25 259.152L1148.37 261.696L1144.55 260V257.456C1139.46 247.563 1134.52 236.821 1129.71 225.232C1125.19 213.36 1120.52 202.477 1115.72 192.584C1112.89 211.523 1109.36 230.461 1105.12 249.4C1100.88 268.339 1095.51 286.712 1089.01 304.52C1083.35 319.784 1076.57 334.483 1068.66 348.616C1060.74 362.467 1054.1 377.165 1048.73 392.712L1045.34 390.168L1040.67 391.016C1038.13 390.451 1036.86 388.755 1036.86 385.928C1036.86 383.667 1037.28 380.981 1038.13 377.872C1038.98 374.48 1039.96 371.088 1041.1 367.696C1042.51 364.304 1043.92 361.053 1045.34 357.944C1046.75 354.552 1047.88 351.867 1048.73 349.888L1044.91 348.616C1044.06 350.312 1041.94 354.128 1038.55 360.064C1035.44 366 1031.91 372.077 1027.95 378.296C1024.28 384.515 1020.6 390.168 1016.93 395.256C1013.25 400.344 1010.43 402.888 1008.45 402.888C1007.03 402.04 1006.04 400.768 1005.48 399.072C1004.91 397.093 1004.63 395.397 1004.63 393.984C1004.63 385.787 1006.47 375.187 1010.14 362.184C1014.1 349.181 1018.62 335.755 1023.71 321.904C1028.8 307.771 1033.89 294.061 1038.98 280.776C1044.35 267.491 1048.44 256.325 1051.27 247.28C1053.82 239.365 1056.08 230.885 1058.06 221.84C1060.32 212.512 1062.15 203.184 1063.57 193.856C1065.26 184.245 1066.68 174.776 1067.81 165.448C1068.94 156.12 1069.93 147.216 1070.78 138.736C1075.58 135.061 1082.08 131.952 1090.28 129.408C1098.76 126.864 1106.53 124.179 1113.6 121.352C1128.86 133.789 1142.01 148.064 1153.03 164.176C1164.06 180.288 1173.67 198.52 1181.86 218.872C1186.95 211.24 1191.62 202.76 1195.86 193.432C1200.38 184.104 1204.48 174.493 1208.15 164.6C1211.83 154.424 1215.36 144.389 1218.75 134.496C1222.14 124.603 1225.54 115.416 1228.93 106.936C1235.99 104.675 1243.34 102.979 1250.98 101.848C1258.89 100.717 1266.66 99.4453 1274.3 98.032C1281.93 113.861 1289.14 128.984 1295.92 143.4C1302.7 157.816 1308.92 172.373 1314.58 187.072C1320.51 201.488 1325.74 216.328 1330.26 231.592C1335.07 246.856 1339.31 263.251 1342.98 280.776C1344.68 289.821 1346.8 299.008 1349.34 308.336C1351.89 317.381 1354.15 326.568 1356.13 335.896C1358.39 345.224 1360.23 354.552 1361.64 363.88C1363.34 373.208 1364.18 382.536 1364.18 391.864C1364.18 392.712 1363.76 393.843 1362.91 395.256C1362.35 396.669 1360.93 397.517 1358.67 397.8C1354.15 371.229 1349.2 344.941 1343.83 318.936C1338.46 293.496 1331.82 268.197 1323.9 243.04C1330.97 268.197 1337.05 293.213 1342.14 318.088C1347.51 343.811 1352.17 369.957 1356.13 396.528L1350.19 399.92C1350.76 403.312 1351.46 406.845 1352.31 410.52C1353.16 414.195 1353.58 417.728 1353.58 421.12C1353.58 421.968 1353.44 423.664 1353.16 426.208C1353.16 429.035 1352.88 431.861 1352.31 434.688C1352.03 437.515 1351.32 439.917 1350.19 441.896C1349.34 444.157 1348.07 445.288 1346.38 445.288C1344.68 445.288 1342.84 444.157 1340.86 441.896C1339.17 439.917 1337.47 437.373 1335.78 434.264C1334.36 431.437 1332.95 428.611 1331.54 425.784C1330.4 423.24 1329.56 421.261 1328.99 419.848C1327.3 401.192 1324.33 380.416 1320.09 357.52C1316.13 334.341 1311.32 311.021 1305.67 287.56C1300.02 263.816 1293.52 240.92 1286.17 218.872C1279.1 196.541 1271.61 176.896 1263.7 159.936L1263.27 162.056C1272.32 181.277 1280.09 201.064 1286.59 221.416C1293.09 241.485 1298.75 261.979 1303.55 282.896C1308.36 303.531 1312.46 324.448 1315.85 345.648C1319.24 366.565 1322.21 387.341 1324.75 407.976C1318.82 394.973 1314.01 381.829 1310.34 368.544C1306.94 354.976 1303.83 341.549 1301.01 328.264C1298.46 314.696 1295.78 301.128 1292.95 287.56C1290.41 273.992 1287.16 260.283 1283.2 246.432L1286.17 237.952C1282.21 226.363 1278.11 214.915 1273.87 203.608C1269.91 192.301 1265.25 181.277 1259.88 170.536L1258.18 174.776C1255.07 183.256 1251.12 193.149 1246.31 204.456C1241.51 215.763 1235.85 226.787 1229.35 237.528C1222.85 248.269 1215.5 257.88 1207.3 266.36C1199.39 274.84 1190.63 280.493 1181.02 283.32C1175.08 279.645 1169 276.253 1162.78 273.144C1156.85 269.752 1150.77 266.36 1144.55 262.968V260.424L1161.51 269.752C1167.16 272.861 1172.82 276.112 1178.47 279.504L1181.86 278.656C1194.02 271.589 1203.77 264.523 1211.12 257.456C1218.75 250.389 1225.25 242.616 1230.62 234.136C1235.99 225.656 1240.66 216.187 1244.62 205.728C1248.86 194.987 1253.66 182.832 1259.03 169.264L1257.34 165.448L1255.64 169.264L1248.43 185.8C1245.6 192.584 1242.07 199.933 1237.83 207.848C1233.87 215.48 1229.35 223.395 1224.26 231.592C1219.46 239.507 1214.51 246.856 1209.42 253.64C1204.34 260.141 1199.11 265.512 1193.74 269.752C1188.36 273.709 1183.28 275.688 1178.47 275.688L1150.49 261.272ZM1296.34 158.664C1295.78 156.968 1294.79 154.707 1293.38 151.88C1291.96 148.771 1290.41 145.661 1288.71 142.552C1287.3 139.443 1285.88 136.475 1284.47 133.648C1283.06 130.539 1281.93 128.277 1281.08 126.864L1285.74 140.008L1295.07 159.512L1296.34 158.664ZM1251.82 160.36L1237.41 198.52C1240.23 192.584 1242.78 186.648 1245.04 180.712C1247.58 174.776 1249.99 168.84 1252.25 162.904L1251.82 160.36ZM1240.8 121.352L1246.31 135.344L1248.43 134.92L1243.34 121.352H1240.8ZM1075.02 144.248L1074.17 156.968C1074.17 159.795 1073.88 163.611 1073.32 168.416L1077.98 143.4L1075.02 144.248ZM1220.02 153.152L1231.05 126.864H1229.35L1220.02 153.152ZM1279.81 124.32L1270.06 108.208L1270.9 112.872L1279.81 124.32ZM1261.58 155.272L1260.73 156.968L1262.42 160.36L1262.85 158.24L1261.58 155.272Z" fill="#212B36"/>
<path d="M1424.23 387.592C1424.23 385.896 1425.22 384.341 1427.2 382.928C1429.17 381.515 1431.44 380.243 1433.98 379.112C1436.81 377.981 1439.49 376.992 1442.04 376.144C1444.86 375.296 1446.98 374.589 1448.4 374.024C1461.96 375.72 1475.53 377.133 1489.1 378.264C1502.67 379.395 1516.24 379.96 1529.8 379.96C1534.89 379.96 1541.96 379.96 1551 379.96C1560.05 379.677 1569.94 379.112 1580.68 378.264C1591.43 377.416 1602.31 376.144 1613.33 374.448C1624.36 372.469 1634.39 369.784 1643.44 366.392C1652.48 363 1659.83 358.76 1665.48 353.672C1671.14 348.584 1673.96 342.224 1673.96 334.592C1673.96 328.373 1672.55 322.861 1669.72 318.056C1667.18 312.968 1663.65 308.587 1659.12 304.912C1654.88 300.955 1650.08 297.704 1644.71 295.16C1642.73 294.029 1640.61 293.04 1638.35 292.192C1640.61 293.323 1642.73 294.453 1644.71 295.584C1649.8 298.411 1654.32 301.944 1658.28 306.184C1662.52 310.141 1665.91 314.664 1668.45 319.752C1671 324.557 1672.27 330.069 1672.27 336.288C1672.27 343.072 1669.72 348.867 1664.64 353.672C1659.83 358.195 1653.47 362.011 1645.56 365.12C1637.92 368.229 1629.3 370.632 1619.69 372.328C1610.36 374.024 1601.04 375.296 1591.71 376.144C1582.38 376.992 1573.76 377.557 1565.84 377.84C1557.93 377.84 1551.71 377.84 1547.19 377.84C1532.77 377.84 1518.21 377.416 1503.52 376.568C1489.1 375.437 1474.68 374.165 1460.27 372.752C1465.36 371.339 1470.44 370.349 1475.53 369.784C1480.9 368.936 1486.27 368.512 1491.64 368.512C1500.69 368.512 1509.59 368.653 1518.36 368.936C1527.12 368.936 1535.88 368.936 1544.64 368.936C1555.1 368.936 1565.42 368.795 1575.6 368.512C1585.77 367.947 1596.23 366.816 1606.97 365.12L1608.24 370.208C1612.48 369.36 1617.85 368.088 1624.36 366.392C1630.86 364.413 1637.08 362.011 1643.01 359.184C1649.23 356.357 1654.46 352.824 1658.7 348.584C1663.22 344.344 1665.48 339.397 1665.48 333.744C1665.48 325.547 1662.52 318.339 1656.58 312.12C1650.64 305.901 1643.01 300.389 1633.68 295.584C1624.64 290.496 1614.32 286.115 1602.73 282.44C1591.14 278.765 1579.69 275.515 1568.39 272.688C1557.36 269.861 1546.91 267.317 1537.01 265.056C1527.12 262.795 1519.2 260.675 1513.27 258.696V261.24C1519.2 263.501 1526.98 265.904 1536.59 268.448C1546.2 270.709 1556.52 273.253 1567.54 276.08C1578.85 278.907 1590.15 282.157 1601.46 285.832C1612.77 289.224 1622.94 293.323 1631.99 298.128C1641.32 302.933 1648.81 308.445 1654.46 314.664C1660.4 320.883 1663.36 327.949 1663.36 335.864C1663.36 340.387 1661.24 344.344 1657 347.736C1652.76 351.128 1647.68 354.096 1641.74 356.64C1636.09 358.901 1630.29 360.739 1624.36 362.152C1618.42 363.565 1613.9 364.555 1610.79 365.12C1614.46 364.272 1619.13 363.141 1624.78 361.728C1630.72 360.032 1636.37 357.912 1641.74 355.368C1647.39 352.824 1652.2 349.856 1656.16 346.464C1660.11 342.789 1662.09 338.549 1662.09 333.744C1662.09 325.829 1658.98 319.187 1652.76 313.816C1646.55 308.445 1638.35 303.64 1628.17 299.4C1618 295.16 1606.41 291.344 1593.4 287.952C1580.4 284.56 1566.97 280.885 1553.12 276.928C1539.56 272.971 1526.27 268.448 1513.27 263.36C1500.27 258.272 1488.68 251.912 1478.5 244.28C1468.32 236.648 1460.13 227.603 1453.91 217.144C1447.69 206.685 1444.58 194.107 1444.58 179.408C1444.58 164.992 1447.97 152.837 1454.76 142.944C1461.82 132.768 1470.73 124.571 1481.47 118.352C1492.49 111.851 1504.51 107.187 1517.51 104.36C1530.51 101.533 1543.09 100.12 1555.24 100.12C1573.05 100.12 1590.44 102.664 1607.4 107.752C1624.64 112.84 1640.89 119.907 1656.16 128.952C1654.46 129.517 1653.47 130.365 1653.19 131.496C1652.91 132.344 1652.62 133.333 1652.34 134.464C1652.34 135.595 1652.06 136.584 1651.49 137.432C1651.21 138.28 1650.36 138.704 1648.95 138.704C1647.82 138.704 1645.56 138.28 1642.16 137.432C1639.05 136.301 1635.66 135.171 1631.99 134.04C1628.31 132.627 1624.78 131.355 1621.39 130.224C1618 129.093 1615.73 128.245 1614.6 127.68L1613.33 131.496C1615.88 132.627 1619.13 134.323 1623.08 136.584C1627.32 138.563 1631.28 141.107 1634.96 144.216C1638.91 147.043 1642.16 150.152 1644.71 153.544C1647.53 156.936 1648.95 160.328 1648.95 163.72C1648.95 167.395 1647.25 169.232 1643.86 169.232C1639.62 169.232 1634.53 168.101 1628.6 165.84C1622.94 163.579 1616.58 161.176 1609.52 158.632C1602.45 155.805 1594.82 153.261 1586.62 151C1578.71 148.739 1570.65 147.608 1562.45 147.608C1557.08 147.608 1550.72 148.173 1543.37 149.304C1536.31 150.152 1529.38 151.989 1522.6 154.816C1516.09 157.36 1510.58 161.035 1506.06 165.84C1501.54 170.363 1499.28 176.157 1499.28 183.224C1499.28 189.725 1502.24 195.237 1508.18 199.76C1514.4 204.283 1522.45 208.381 1532.35 212.056C1542.52 215.731 1553.97 219.264 1566.69 222.656C1579.41 226.048 1592.41 229.864 1605.7 234.104C1619.27 238.061 1632.41 242.725 1645.13 248.096C1657.85 253.467 1669.16 259.968 1679.05 267.6C1689.23 275.232 1697.28 284.277 1703.22 294.736C1709.44 305.195 1712.55 317.491 1712.55 331.624C1712.55 345.475 1709.72 357.205 1704.07 366.816C1698.41 376.427 1690.92 384.483 1681.6 390.984C1672.27 397.203 1661.67 402.149 1649.8 405.824C1637.92 409.216 1625.63 411.901 1612.91 413.88C1600.47 415.576 1588.03 416.565 1575.6 416.848C1563.44 417.413 1552.42 417.696 1542.52 417.696H1500.12C1497.58 417.696 1494.05 417.555 1489.52 417.272C1485.28 417.272 1481.04 416.989 1476.8 416.424C1472.56 416.141 1468.89 415.435 1465.78 414.304C1462.67 413.173 1461.12 411.76 1461.12 410.064L1461.54 407.944C1473.13 408.509 1484.58 409.075 1495.88 409.64C1507.19 409.923 1518.64 410.064 1530.23 410.064C1540.97 410.064 1551.71 410.064 1562.45 410.064C1572.06 409.781 1581.67 409.216 1591.28 408.368C1586.48 408.651 1581.67 408.933 1576.87 409.216C1570.93 409.216 1565.14 409.216 1559.48 409.216H1542.52C1515.95 409.216 1489.81 408.368 1464.08 406.672C1464.65 404.411 1464.93 402.856 1464.93 402.008C1464.93 400.877 1464.65 399.747 1464.08 398.616C1463.52 398.616 1462.67 398.757 1461.54 399.04C1460.69 399.04 1459.56 399.04 1458.15 399.04C1455.04 399.04 1451.51 398.899 1447.55 398.616C1443.87 398.333 1440.2 397.768 1436.52 396.92C1433.13 396.072 1430.16 394.941 1427.62 393.528C1425.36 391.832 1424.23 389.853 1424.23 387.592ZM1684.56 376.568C1679.76 380.808 1674.67 384.341 1669.3 387.168C1664.49 389.712 1659.55 392.115 1654.46 394.376C1659.55 392.68 1664.49 390.701 1669.3 388.44C1674.67 386.179 1679.76 382.221 1684.56 376.568Z" fill="#212B36"/>
</svg>
